<?xml version="1.0" encoding="UTF-8" standalone="no"?>
<svg width="512px" height="512px" viewBox="0 0 512 512" version="1.1" xmlns="http://www.w3.org/2000/svg" xmlns:xlink="http://www.w3.org/1999/xlink" xmlns:sketch="http://www.bohemiancoding.com/sketch/ns">
    <!-- Generator: Sketch 3.2 (9961) - http://www.bohemiancoding.com/sketch -->
    <title>account</title>
    <desc>Created with Sketch.</desc>
    <defs></defs>
    <g id="Page-1" stroke="none" stroke-width="1" fill="none" fill-rule="evenodd" sketch:type="MSPage">
        <g id="account" sketch:type="MSArtboardGroup" fill="#0B0C0C">
            <path d="M512,256 C512,114.615097 397.384903,0 256,0 C114.615097,0 0,114.615097 0,256 C0,397.384903 114.615097,512 256,512 C397.384903,512 512,397.384903 512,256 Z M60,256 C60,147.752182 147.752182,60 256,60 C364.247818,60 452,147.752182 452,256 C452,364.247818 364.247818,452 256,452 C147.752182,452 60,364.247818 60,256 Z M259.809251,96.2758621 C304.501263,96.2758621 340.727847,133.099119 340.727847,178.527236 C340.727847,223.955353 304.501263,260.77861 259.809251,260.77861 C215.117239,260.77861 178.890656,223.955353 178.890656,178.527236 C178.890656,133.099119 215.117239,96.2758621 259.809251,96.2758621 L259.809251,96.2758621 L259.809251,96.2758621 Z M258.758621,280.275862 C179.22535,280.275862 114.758621,308.928297 114.758621,344.275862 C114.758621,345.530327 115,456 115,456 L403,456 L402.757405,344 C402.422901,308.779344 338.076985,280.275862 258.758621,280.275862 Z" id="Oval-5" sketch:type="MSShapeGroup"></path>
        </g>
    </g>
</svg>