<?xml version="1.0" encoding="UTF-8" standalone="no"?>
<svg width="512px" height="512px" viewBox="0 0 512 512" version="1.1" xmlns="http://www.w3.org/2000/svg" xmlns:xlink="http://www.w3.org/1999/xlink" xmlns:sketch="http://www.bohemiancoding.com/sketch/ns">
    <!-- Generator: Sketch 3.2 (9961) - http://www.bohemiancoding.com/sketch -->
    <title>adaptation</title>
    <desc>Created with Sketch.</desc>
    <defs></defs>
    <g id="Page-1" stroke="none" stroke-width="1" fill="none" fill-rule="evenodd" sketch:type="MSPage">
        <g id="adaptation" sketch:type="MSArtboardGroup" fill="#0B0C0C">
            <g id="adaptation-icon" sketch:type="MSLayerGroup">
                <path d="M32.004,0.11 C14.329,0.11 0,14.439 0,32.114 L0,480.106 C0,497.781 14.329,512.11 32.004,512.11 L479.996,512.11 C497.671,512.11 512,497.781 512,480.106 L512,32.114 C512,14.438 497.671,0.11 479.996,0.11 L32.004,0.11 Z M448,416.105 C448,433.778 433.674,448.11 416.003,448.11 L95.997,448.11 C78.324,448.11 64,433.781 64,416.105 L64,256.114 C64,238.441 78.326,224.11 95.997,224.11 L416.003,224.11 C433.677,224.11 448,238.439 448,256.114 L448,416.105 L448,416.105 Z M448,128.11 C448,145.79 433.674,160.11 416.003,160.11 L95.997,160.11 C78.324,160.11 64,145.783 64,128.11 L64,96.11 C64,78.43 78.326,64.11 95.997,64.11 L416.003,64.11 C433.677,64.11 448,78.437 448,96.11 L448,128.11 L448,128.11 Z" id="Fill-1" sketch:type="MSShapeGroup"></path>
                <path d="M320,352.11 L384,352.11 L384,416.11 L320,416.11 L320,352.11 Z" id="Fill-2" sketch:type="MSShapeGroup"></path>
                <path d="M224,352.11 L288,352.11 L288,416.11 L224,416.11 L224,352.11 Z" id="Fill-3" sketch:type="MSShapeGroup"></path>
                <path d="M128,352.11 L192,352.11 L192,416.11 L128,416.11 L128,352.11 Z" id="Fill-4" sketch:type="MSShapeGroup"></path>
                <path d="M320,256.11 L384,256.11 L384,320.11 L320,320.11 L320,256.11 Z" id="Fill-5" sketch:type="MSShapeGroup"></path>
                <path d="M224,256.11 L288,256.11 L288,320.11 L224,320.11 L224,256.11 Z" id="Fill-6" sketch:type="MSShapeGroup"></path>
                <path d="M128,256.11 L192,256.11 L192,320.11 L128,320.11 L128,256.11 Z" id="Fill-7" sketch:type="MSShapeGroup"></path>
            </g>
        </g>
    </g>
</svg>