<?xml version="1.0" encoding="UTF-8" standalone="no"?>
<svg width="512px" height="512px" viewBox="0 0 512 512" version="1.1" xmlns="http://www.w3.org/2000/svg" xmlns:xlink="http://www.w3.org/1999/xlink" xmlns:sketch="http://www.bohemiancoding.com/sketch/ns">
    <!-- Generator: Sketch 3.0.4 (8054) - http://www.bohemiancoding.com/sketch -->
    <title>adaptation</title>
    <desc>Created with Sketch.</desc>
    <defs></defs>
    <g id="Page-1" stroke="none" stroke-width="1" fill="none" fill-rule="evenodd" sketch:type="MSPage">
        <g id="adaptation" sketch:type="MSArtboardGroup" fill="#0B0C0C">
            <path d="M32.0036842,0 C14.3285375,0 0,14.3292507 0,32.0036842 L0,479.996316 C0,497.671463 14.3292507,512 32.0036842,512 L479.996316,512 C497.671463,512 512,497.670749 512,479.996316 L512,32.0036842 C512,14.3285375 497.670749,0 479.996316,0 L32.0036842,0 Z M95.9969832,64 C78.3255373,64 64,78.3203044 64,95.9999655 L64,128.000034 C64,145.673127 78.3235467,160 95.9969832,160 L416.003017,160 C433.674463,160 448,145.679696 448,128.000034 L448,95.9999655 C448,78.3268726 433.676453,64 416.003017,64 L95.9969832,64 Z M95.9969832,224 C78.3255373,224 64,238.331561 64,256.004452 L64,415.995548 C64,433.671119 78.3235467,448 95.9969832,448 L416.003017,448 C433.674463,448 448,433.668439 448,415.995548 L448,256.004452 C448,238.328881 433.676453,224 416.003017,224 L95.9969832,224 Z M320,352 L320,416 L384,416 L384,352 L320,352 Z M224,352 L224,416 L288,416 L288,352 L224,352 Z M128,352 L128,416 L192,416 L192,352 L128,352 Z M320,256 L320,320 L384,320 L384,256 L320,256 Z M224,256 L224,320 L288,320 L288,256 L224,256 Z M128,256 L128,320 L192,320 L192,256 L128,256 Z" id="icon-adaptation" sketch:type="MSShapeGroup"></path>
        </g>
    </g>
</svg>