<?xml version="1.0" encoding="UTF-8" standalone="no"?>
<svg width="16px" height="16px" viewBox="0 0 16 16" version="1.1" xmlns="http://www.w3.org/2000/svg" xmlns:xlink="http://www.w3.org/1999/xlink" xmlns:sketch="http://www.bohemiancoding.com/sketch/ns">
    <!-- Generator: Sketch 3.0.3 (7891) - http://www.bohemiancoding.com/sketch -->
    <title>Add_icon</title>
    <desc>Created with Sketch.</desc>
    <defs></defs>
    <g id="Page-1" stroke="none" stroke-width="1" fill="none" fill-rule="evenodd" sketch:type="MSPage">
        <g id="Add_icon" sketch:type="MSArtboardGroup" fill="#0B0C0C">
            <path d="M7,9 L4,9 L4,7 L7,7 L7,4 L9,4 L9,7 L12,7 L12,9 L9,9 L9,12 L7,12 L7,9 Z M8,16 C12.4182782,16 16,12.4182782 16,8 C16,3.58172178 12.4182782,0 8,0 C3.58172178,0 0,3.58172178 0,8 C0,12.4182782 3.58172178,16 8,16 Z M8,14 C11.3137087,14 14,11.3137087 14,8 C14,4.68629134 11.3137087,2 8,2 C4.68629134,2 2,4.68629134 2,8 C2,11.3137087 4.68629134,14 8,14 Z" id="add_icon" sketch:type="MSShapeGroup"></path>
        </g>
    </g>
</svg>