<?xml version="1.0" encoding="UTF-8" standalone="no"?>
<svg width="512px" height="512px" viewBox="0 0 512 512" version="1.1" xmlns="http://www.w3.org/2000/svg" xmlns:xlink="http://www.w3.org/1999/xlink" xmlns:sketch="http://www.bohemiancoding.com/sketch/ns">
    <!-- Generator: Sketch 3.0.4 (8054) - http://www.bohemiancoding.com/sketch -->
    <title>alert</title>
    <desc>Created with Sketch.</desc>
    <defs></defs>
    <g id="Page-1" stroke="none" stroke-width="1" fill="none" fill-rule="evenodd" sketch:type="MSPage">
        <g id="alert" sketch:type="MSArtboardGroup">
            <g id="icon-Alert" sketch:type="MSLayerGroup">
                <circle id="Oval-8" fill="#0B0C0C" sketch:type="MSShapeGroup" cx="256" cy="256" r="256"></circle>
                <path d="M222.979668,96 L295.929419,96 L289.669704,292.479582 L229.480141,292.479582 L222.979668,96 Z M213.590096,367.836915 C213.590096,361.57717 214.793876,355.678651 217.20147,350.141184 C219.609065,344.603716 222.939521,339.748473 227.192938,335.575309 C231.446355,331.402146 236.381849,328.111816 241.99957,325.704221 C247.617291,323.296627 253.636187,322.092847 260.056439,322.092847 C266.316185,322.092847 272.214703,323.296627 277.752171,325.704221 C283.289638,328.111816 288.144881,331.402146 292.318045,335.575309 C296.491209,339.748473 299.781539,344.603716 302.189133,350.141184 C304.596728,355.678651 305.800507,361.57717 305.800507,367.836915 C305.800507,374.257168 304.596728,380.276064 302.189133,385.893784 C299.781539,391.511505 296.491209,396.406874 292.318045,400.580038 C288.144881,404.753202 283.289638,408.043532 277.752171,410.451126 C272.214703,412.858721 266.316185,414.0625 260.056439,414.0625 C253.636187,414.0625 247.617291,412.858721 241.99957,410.451126 C236.381849,408.043532 231.446355,404.753202 227.192938,400.580038 C222.939521,396.406874 219.609065,391.511505 217.20147,385.893784 C214.793876,380.276064 213.590096,374.257168 213.590096,367.836915 L213.590096,367.836915 Z" id="!-2" fill="#FFFFFF" sketch:type="MSShapeGroup"></path>
            </g>
        </g>
    </g>
</svg>