<?xml version="1.0" encoding="UTF-8" standalone="no"?>
<svg width="16px" height="16px" viewBox="0 0 16 16" version="1.1" xmlns="http://www.w3.org/2000/svg" xmlns:xlink="http://www.w3.org/1999/xlink" xmlns:sketch="http://www.bohemiancoding.com/sketch/ns">
    <!-- Generator: Sketch 3.0.4 (8053) - http://www.bohemiancoding.com/sketch -->
    <title>icon-Alert</title>
    <desc>Created with Sketch.</desc>
    <defs></defs>
    <g id="Page-1" stroke="none" stroke-width="1" fill="none" fill-rule="evenodd" sketch:type="MSPage">
        <g id="icon-Alert" sketch:type="MSArtboardGroup">
            <circle id="Oval-7" fill="#0B0C0C" sketch:type="MSShapeGroup" cx="8" cy="8" r="8"></circle>
            <path d="M6.96811463,3 L9.24779434,3 L9.05217826,9.13998694 L7.17125441,9.13998694 L6.96811463,3 Z M6.67469051,11.4949036 C6.67469051,11.2992865 6.71230861,11.1149579 6.78754594,10.941912 C6.86278327,10.7688661 6.96686002,10.6171398 7.0997793,10.4867284 C7.23269858,10.356317 7.3869328,10.2534942 7.56248657,10.1782569 C7.73804034,10.1030196 7.92613084,10.0654015 8.12676372,10.0654015 C8.32238078,10.0654015 8.50670948,10.1030196 8.67975534,10.1782569 C8.8528012,10.2534942 9.00452754,10.356317 9.13493891,10.4867284 C9.26535028,10.6171398 9.36817309,10.7688661 9.44341042,10.941912 C9.51864775,11.1149579 9.55626585,11.2992865 9.55626585,11.4949036 C9.55626585,11.6955365 9.51864775,11.883627 9.44341042,12.0591808 C9.36817309,12.2347345 9.26535028,12.3877148 9.13493891,12.5181262 C9.00452754,12.6485376 8.8528012,12.7513604 8.67975534,12.8265977 C8.50670948,12.901835 8.32238078,12.9394531 8.12676372,12.9394531 C7.92613084,12.9394531 7.73804034,12.901835 7.56248657,12.8265977 C7.3869328,12.7513604 7.23269858,12.6485376 7.0997793,12.5181262 C6.96686002,12.3877148 6.86278327,12.2347345 6.78754594,12.0591808 C6.71230861,11.883627 6.67469051,11.6955365 6.67469051,11.4949036 L6.67469051,11.4949036 Z" id="!" fill="#FFFFFF" sketch:type="MSShapeGroup"></path>
        </g>
    </g>
</svg>