<?xml version="1.0" encoding="UTF-8" standalone="no"?>
<svg width="512px" height="512px" viewBox="0 0 512 512" version="1.1" xmlns="http://www.w3.org/2000/svg" xmlns:xlink="http://www.w3.org/1999/xlink" xmlns:sketch="http://www.bohemiancoding.com/sketch/ns">
    <!-- Generator: Sketch 3.0.4 (8054) - http://www.bohemiancoding.com/sketch -->
    <title>briefcase</title>
    <desc>Created with Sketch.</desc>
    <defs></defs>
    <g id="Page-1" stroke="none" stroke-width="1" fill="none" fill-rule="evenodd" sketch:type="MSPage">
        <g id="briefcase" sketch:type="MSArtboardGroup" fill="#0B0C0C">
            <g id="icon-Organisation" sketch:type="MSLayerGroup">
                <path d="M160,320 L64,320 L64,256 L448,256 L448,320 L352,320 L352,415.006809 C352,415.561614 351.552912,416 351.001402,416 L160.998598,416 C160.453253,416 160,415.555333 160,415.006809 L160,320 Z M384,96 L509.990355,96 C511.099374,96 512,96.8929301 512,97.9944152 L512,510.005585 C512,511.100041 511.100251,512 509.990355,512 L2.0096451,512 C0.900626183,512 0,511.10707 0,510.005585 L0,97.9944152 C0,96.8999591 0.899748761,96 2.0096451,96 L128,96 L128,1.99402962 C128,0.899814069 128.897592,0 130.004829,0 L381.995171,0 C383.098298,0 384,0.89275747 384,1.99402962 L384,96 L384,96 Z M65.0017095,160 C64.4484806,160 64,160.448078 64,161.000344 L64,446.999656 C64,447.552131 64.4555384,448 65.0017095,448 L446.998291,448 C447.551519,448 448,447.551922 448,446.999656 L448,161.000344 C448,160.447869 447.544462,160 446.998291,160 L65.0017095,160 Z M192,64 L192,96 L320,96 L320,64 L192,64 Z M224,320 L224,352 L288,352 L288,320 L224,320 Z" id="Organisation_icon-2" sketch:type="MSShapeGroup"></path>
            </g>
        </g>
    </g>
</svg>