<?xml version="1.0" encoding="UTF-8" standalone="no"?>
<svg width="512px" height="512px" viewBox="0 0 512 512" version="1.1" xmlns="http://www.w3.org/2000/svg" xmlns:xlink="http://www.w3.org/1999/xlink" xmlns:sketch="http://www.bohemiancoding.com/sketch/ns">
    <!-- Generator: Sketch 3.2 (9961) - http://www.bohemiancoding.com/sketch -->
    <title>briefcase</title>
    <desc>Created with Sketch.</desc>
    <defs></defs>
    <g id="Page-1" stroke="none" stroke-width="1" fill="none" fill-rule="evenodd" sketch:type="MSPage">
        <g id="briefcase" sketch:type="MSArtboardGroup" fill="#0B0C0C">
            <path d="M160,320 L64,320 L64,256 L448,256 L448,320 L352,320 L352,415.006809 C352,415.561614 351.552912,416 351.001402,416 L160.998598,416 C160.453253,416 160,415.555333 160,415.006809 L160,320 Z M384,96 L479.996316,96 C497.670749,96 512,110.324677 512,127.995062 L512,480.004938 C512,497.680338 497.671463,512 479.996316,512 L32.0036842,512 C14.3292507,512 0,497.675323 0,480.004938 L0,127.995062 C0,110.319662 14.3285375,96 32.0036842,96 L128,96 L128,31.9938397 C128,14.3221085 142.32768,0 160.001768,0 L351.998232,0 C369.664719,0 384,14.32413 384,31.9938397 L384,96 L384,96 Z M95.9969832,160 C78.3255373,160 64,174.331195 64,191.990718 L64,416.009282 C64,433.677268 78.3235467,448 95.9969832,448 L416.003017,448 C433.674463,448 448,433.668805 448,416.009282 L448,191.990718 C448,174.322732 433.676453,160 416.003017,160 L95.9969832,160 Z M192,64 L192,96 L320,96 L320,64 L192,64 Z M224,320 L224,352 L288,352 L288,320 L224,320 Z" id="organisation" sketch:type="MSShapeGroup"></path>
        </g>
    </g>
</svg>