<?xml version="1.0" encoding="UTF-8" standalone="no"?>
<svg width="512px" height="512px" viewBox="0 0 512 512" version="1.1" xmlns="http://www.w3.org/2000/svg" xmlns:xlink="http://www.w3.org/1999/xlink" xmlns:sketch="http://www.bohemiancoding.com/sketch/ns">
    <!-- Generator: Sketch 3.2 (9961) - http://www.bohemiancoding.com/sketch -->
    <title>callback</title>
    <desc>Created with Sketch.</desc>
    <defs></defs>
    <g id="Page-1" stroke="none" stroke-width="1" fill="none" fill-rule="evenodd" sketch:type="MSPage">
        <g id="callback" sketch:type="MSArtboardGroup" fill="#0B0C0C">
            <path d="M280.50391,394.56056 C256.357425,389.431654 128.603519,263.361326 128.603519,238.542967 C150.60081,239.011001 155.639448,247.185895 174.360546,235.485036 C180.444903,231.272727 238.01228,174.640574 238.01228,174.640574 C255.329296,157.323304 254.861268,128.773209 237.076225,110.987905 L139.726514,13.6367647 C121.941471,-4.14853975 93.391796,-4.61657407 76.0747801,12.7006961 C76.0747801,12.7006961 19.4434579,70.2689185 15.2312108,76.3533647 C-6.76607959,110.519871 -0.675398763,153.428844 12.4230461,191.489809 C25.521491,229.550775 49.8652426,298.201636 141.130596,389.46833 C243.160582,491.499814 301.468788,500.953808 339.574238,506.476912 C377.679687,512.000017 405.566109,512.561359 433.647756,494.776054 C439.732113,490.563745 497.29949,433.931592 497.29949,433.931592 C514.616506,416.614321 514.148479,388.064227 496.363436,370.278923 L404.273441,278.367201 C386.488398,260.581896 357.938723,260.113862 340.621707,277.431132 C340.621707,277.431132 283.990385,334.999355 279.778138,341.083801 C265.737314,363.081414 280.50391,394.56056 280.50391,394.56056 Z M407.768044,48 L512,148.034239 L407.768044,248.068479 L407.768044,198.48791 C288.71769,197.199568 256,248.068481 256,248.068481 C256,248.068481 255.099553,98.0171215 407.768044,98.0171196 L407.768044,48 Z" sketch:type="MSShapeGroup"></path>
        </g>
    </g>
</svg>