<?xml version="1.0" encoding="UTF-8" standalone="no"?>
<svg width="512px" height="512px" viewBox="0 0 512 512" version="1.1" xmlns="http://www.w3.org/2000/svg" xmlns:xlink="http://www.w3.org/1999/xlink" xmlns:sketch="http://www.bohemiancoding.com/sketch/ns">
    <!-- Generator: Sketch 3.2 (9961) - http://www.bohemiancoding.com/sketch -->
    <title>call</title>
    <desc>Created with Sketch.</desc>
    <defs></defs>
    <g id="Page-1" stroke="none" stroke-width="1" fill="none" fill-rule="evenodd" sketch:type="MSPage">
        <g id="call" sketch:type="MSArtboardGroup" fill="#0B0C0C">
            <path d="M282.50391,394.56056 C258.357425,389.431654 130.603519,263.361326 130.603519,238.542967 C152.60081,239.011001 157.639448,247.185895 176.360546,235.485036 C182.444903,231.272727 240.01228,174.640574 240.01228,174.640574 C257.329296,157.323304 256.861268,128.773209 239.076225,110.987905 L141.726514,13.6367647 C123.941471,-4.14853975 95.391796,-4.61657407 78.0747801,12.7006961 C78.0747801,12.7006961 21.4434579,70.2689185 17.2312108,76.3533647 C-4.76607959,110.519871 1.32460124,153.428844 14.4230461,191.489809 C27.521491,229.550775 51.8652426,298.201636 143.130596,389.46833 C245.160582,491.499814 303.468788,500.953808 341.574238,506.476912 C379.679687,512.000017 407.566109,512.561359 435.647756,494.776054 C441.732113,490.563745 499.29949,433.931592 499.29949,433.931592 C516.616506,416.614321 516.148479,388.064227 498.363436,370.278923 L406.273441,278.367201 C388.488398,260.581896 359.938723,260.113862 342.621707,277.431132 C342.621707,277.431132 285.990385,334.999355 281.778138,341.083801 C267.737314,363.081414 282.50391,394.56056 282.50391,394.56056 Z" sketch:type="MSShapeGroup"></path>
        </g>
    </g>
</svg>