<?xml version="1.0" encoding="UTF-8" standalone="no"?>
<svg width="512px" height="512px" viewBox="0 0 512 512" version="1.1" xmlns="http://www.w3.org/2000/svg" xmlns:xlink="http://www.w3.org/1999/xlink" xmlns:sketch="http://www.bohemiancoding.com/sketch/ns">
    <!-- Generator: Sketch 3.0.4 (8054) - http://www.bohemiancoding.com/sketch -->
    <title>callback</title>
    <desc>Created with Sketch.</desc>
    <defs></defs>
    <g id="Page-1" stroke="none" stroke-width="1" fill="none" fill-rule="evenodd" sketch:type="MSPage">
        <g id="callback" sketch:type="MSArtboardGroup" fill="#0B0C0C">
            <g id="icon-Callback" sketch:type="MSLayerGroup">
                <path d="M276.518421,335.644383 C262.477598,357.641996 256.861268,383.383884 260.13746,408.657738 C245.628609,411.465944 223.163291,379.171575 182.444903,337.984554 C132.833992,288.372915 117.857114,274.331886 114.580922,252.802306 C136.578212,253.270341 157.639448,247.185895 176.360546,235.485036 C182.444903,231.272727 188.061232,226.592384 193.209534,221.444006 L240.01228,174.640574 C257.329296,157.323304 256.861268,128.773209 239.076225,110.987905 L190.40137,62.3123349 L141.726514,13.6367647 C123.941471,-4.14853975 95.391796,-4.61657407 78.0747801,12.7006961 L31.2720345,59.5041289 C26.1237325,64.6525065 21.4434579,70.2689185 17.2312108,76.3533647 C-4.76607959,110.519871 -5.7021345,155.451166 14.4230461,191.489809 C22.3795128,232.67683 51.8652426,298.201636 143.130596,389.46833 C245.160582,491.499814 307.923064,509.285118 341.574238,506.476912 C372.932077,516.773668 407.566109,512.561359 435.647756,494.776054 C441.732113,490.563745 447.348443,485.883402 452.496745,480.735024 L499.29949,433.931592 C516.616506,416.614321 516.148479,388.064227 498.363436,370.278923 L449.68858,321.603353 L401.013725,272.927783 C383.228681,255.142478 354.679007,254.674444 337.361991,271.991714 L290.559245,318.795147 C285.410943,323.943524 280.730669,329.559936 276.518421,335.644383 L276.518421,335.644383 Z" id="Path-8" sketch:type="MSShapeGroup"></path>
                <path d="M407.272727,64 L512,164.561552 L407.272727,265.123103 L407.272727,215.281179 C224,215.281308 224,387.456066 224,290.263491 C224,193.070916 306.053997,114.245499 407.272727,114.280776 L407.272727,64 Z" id="Path-9" sketch:type="MSShapeGroup"></path>
            </g>
        </g>
    </g>
</svg>