<?xml version="1.0" encoding="UTF-8" standalone="no"?>
<svg width="16px" height="16px" viewBox="0 0 16 16" version="1.1" xmlns="http://www.w3.org/2000/svg" xmlns:xlink="http://www.w3.org/1999/xlink" xmlns:sketch="http://www.bohemiancoding.com/sketch/ns">
    <!-- Generator: Sketch 3.0.3 (7891) - http://www.bohemiancoding.com/sketch -->
    <title>AddComment_icon</title>
    <desc>Created with Sketch.</desc>
    <defs></defs>
    <g id="Page-1" stroke="none" stroke-width="1" fill="none" fill-rule="evenodd" sketch:type="MSPage">
        <g id="AddComment_icon" sketch:type="MSArtboardGroup" fill="#6F777B">
            <path d="M3,13 L3,14.9924225 C3,14.9924225 3.23205566,16.8161127 5.00832222,15.5564784 C6.02471203,14.8357084 7.51230568,13.775336 8.59906644,13 L14.0059397,13 C15.1072288,13 16,12.1064574 16,10.9972399 L16,2.00276013 C16,0.896666251 15.1054862,0 14.0059397,0 L1.99406028,0 C0.892771196,0 0,0.893542647 0,2.00276013 L0,10.9972399 C0,12.1033337 0.894513756,13 1.99406028,13 L3,13 L3,13 Z M3.00247329,2 C2.44882258,2 2,2.4463114 2,2.99754465 L2,10.0024554 C2,10.553384 2.45576096,11 3.00247329,11 L12.9975267,11 C13.5511774,11 14,10.5536886 14,10.0024554 L14,2.99754465 C14,2.44661595 13.544239,2 12.9975267,2 L3.00247329,2 Z M5,11 L5,13 L8,11 L5,11 Z" id="Rectangle-220" sketch:type="MSShapeGroup"></path>
            <rect id="Path" sketch:type="MSShapeGroup" x="7" y="3" width="2" height="6"></rect>
            <rect id="Path" sketch:type="MSShapeGroup" x="5" y="5" width="6" height="2"></rect>
        </g>
    </g>
</svg>