<?xml version="1.0" encoding="UTF-8" standalone="no"?>
<svg width="512px" height="512px" viewBox="0 0 512 512" version="1.1" xmlns="http://www.w3.org/2000/svg" xmlns:xlink="http://www.w3.org/1999/xlink" xmlns:sketch="http://www.bohemiancoding.com/sketch/ns">
    <!-- Generator: Sketch 3.0.4 (8054) - http://www.bohemiancoding.com/sketch -->
    <title>commentAdd</title>
    <desc>Created with Sketch.</desc>
    <defs></defs>
    <g id="Page-1" stroke="none" stroke-width="1" fill="none" fill-rule="evenodd" sketch:type="MSPage">
        <g id="commentAdd" sketch:type="MSArtboardGroup" fill="#0B0C0C">
            <path d="M233,176 L233,112 L297,112 L297,176 L361,176 L361,240 L297,240 L297,304 L233,304 L233,240 L169,240 L169,176 L233,176 Z M96,416 L96,479.757522 C96,479.757522 103.425781,538.115606 160.266311,497.807308 C192.790785,474.74267 240.393782,440.810751 275.170126,416 L479.996316,416 C497.671463,416 512,401.680338 512,384.004938 L512,31.9950625 C512,14.3246774 497.670749,0 479.996316,0 L32.0036842,0 C14.3285375,0 0,14.3196616 0,31.9950625 L0,384.004938 C0,401.675323 14.3292507,416 32.0036842,416 L96,416 L96,416 Z M95.9969832,64 C78.3255373,64 64,78.3311946 64,95.9907178 L64,320.009282 C64,337.677268 78.3235467,352 95.9969832,352 L416.003017,352 C433.674463,352 448,337.668805 448,320.009282 L448,95.9907178 C448,78.3227322 433.676453,64 416.003017,64 L95.9969832,64 Z M160,352 L160,416 L256,352 L160,352 Z" sketch:type="MSShapeGroup"></path>
        </g>
    </g>
</svg>