<?xml version="1.0" encoding="UTF-8" standalone="no"?>
<svg width="512px" height="512px" viewBox="0 0 512 512" version="1.1" xmlns="http://www.w3.org/2000/svg" xmlns:xlink="http://www.w3.org/1999/xlink" xmlns:sketch="http://www.bohemiancoding.com/sketch/ns">
    <!-- Generator: Sketch 3.0.4 (8054) - http://www.bohemiancoding.com/sketch -->
    <title>commentAdd</title>
    <desc>Created with Sketch.</desc>
    <defs></defs>
    <g id="Page-1" stroke="none" stroke-width="1" fill="none" fill-rule="evenodd" sketch:type="MSPage">
        <g id="commentAdd" sketch:type="MSArtboardGroup" fill="#0B0C0C">
            <g id="icon-AddComment" sketch:type="MSLayerGroup">
                <path d="M96,416 L96,479.757522 C96,479.757522 103.425781,538.115606 160.266311,497.807308 C192.790785,474.74267 240.393782,440.810751 275.170126,416 L509.990355,416 C511.100251,416 512,415.100041 512,414.005585 L512,1.99441517 C512,0.892930087 511.099374,0 509.990355,0 L2.0096451,0 C0.899748761,0 0,0.899959085 0,1.99441517 L0,414.005585 C0,415.10707 0.900626183,416 2.0096451,416 L96,416 L96,416 Z M65.0017095,64 C64.4484806,64 64,64.4480781 64,65.0003436 L64,350.999656 C64,351.552131 64.4555384,352 65.0017095,352 L446.998291,352 C447.551519,352 448,351.551922 448,350.999656 L448,65.0003436 C448,64.4478691 447.544462,64 446.998291,64 L65.0017095,64 Z M160,352 L160,416 L256,352 L160,352 Z" id="Rectangle-221" sketch:type="MSShapeGroup"></path>
                <rect id="Path-5" sketch:type="MSShapeGroup" x="224" y="96" width="64" height="192"></rect>
                <rect id="Path-6" sketch:type="MSShapeGroup" x="160" y="160" width="192" height="64"></rect>
            </g>
        </g>
    </g>
</svg>