<?xml version="1.0" encoding="UTF-8" standalone="no"?>
<svg width="512px" height="512px" viewBox="0 0 512 512" version="1.1" xmlns="http://www.w3.org/2000/svg" xmlns:xlink="http://www.w3.org/1999/xlink" xmlns:sketch="http://www.bohemiancoding.com/sketch/ns">
    <!-- Generator: Sketch 3.2 (9961) - http://www.bohemiancoding.com/sketch -->
    <title>commentAdd</title>
    <desc>Created with Sketch.</desc>
    <defs></defs>
    <g id="Page-1" stroke="none" stroke-width="1" fill="none" fill-rule="evenodd" sketch:type="MSPage">
        <g id="commentAdd" sketch:type="MSArtboardGroup" fill="#0B0C0C">
            <path d="M479.996,0.11 L32.004,0.11 C14.329,0.11 0,14.43 0,32.105 L0,384.115 C0,401.785 14.329,416.11 32.004,416.11 L96,416.11 L96,479.867 C96,479.867 103.426,538.226 160.266,497.917 C192.791,474.853 240.394,440.921 275.17,416.11 L479.996,416.11 C497.671,416.11 512,401.79 512,384.115 L512,32.105 C512,14.435 497.671,0.11 479.996,0.11 Z M448,320.119 C448,337.779 433.674,352.11 416.003,352.11 L256,352.11 L160,416.11 L160,352.11 L95.997,352.11 C78.324,352.11 64,337.787 64,320.119 L64,96.101 C64,78.441 78.326,64.11 95.997,64.11 L416.003,64.11 C433.677,64.11 448,78.433 448,96.101 L448,320.119 Z M297,112.11 L233,112.11 L233,176.11 L169,176.11 L169,240.11 L233,240.11 L233,304.11 L297,304.11 L297,240.11 L361,240.11 L361,176.11 L297,176.11 L297,112.11 Z" id="commentAdd-icon-2" sketch:type="MSShapeGroup"></path>
        </g>
    </g>
</svg>