<?xml version="1.0" encoding="UTF-8" standalone="no"?>
<svg width="16px" height="16px" viewBox="0 0 16 16" version="1.1" xmlns="http://www.w3.org/2000/svg" xmlns:xlink="http://www.w3.org/1999/xlink" xmlns:sketch="http://www.bohemiancoding.com/sketch/ns">
    <!-- Generator: Sketch 3.0.3 (7891) - http://www.bohemiancoding.com/sketch -->
    <title>Comment_icon</title>
    <desc>Created with Sketch.</desc>
    <defs></defs>
    <g id="Page-1" stroke="none" stroke-width="1" fill="none" fill-rule="evenodd" sketch:type="MSPage">
        <g id="Comment_icon" sketch:type="MSArtboardGroup" fill="#0B0C0C">
            <path d="M3,13 L1.99406028,13 C0.894513756,13 0,12.1033337 0,10.9972399 L0,2.00276013 C0,0.893542647 0.892771196,0 1.99406028,0 L14.0059397,0 C15.1054862,0 16,0.896666251 16,2.00276013 L16,10.9972399 C16,12.1064574 15.1072288,13 14.0059397,13 L8.59906644,13 C7.51230568,13.775336 6.02471203,14.8357084 5.00832222,15.5564784 C3.23205566,16.8161127 3,14.9924225 3,14.9924225 L3,13 L3,13 Z M3.00247329,2 C2.44882258,2 2,2.4463114 2,2.99754465 L2,10.0024554 C2,10.553384 2.45576096,11 3.00247329,11 L12.9975267,11 C13.5511774,11 14,10.5536886 14,10.0024554 L14,2.99754465 C14,2.44661595 13.544239,2 12.9975267,2 L3.00247329,2 Z M5,11 L5,13 L8,11 L5,11 Z" id="Path" sketch:type="MSShapeGroup"></path>
            <path d="M12.6972722,9 L12.6972722,7 L3.20386396,7 L3.20386396,9 L12.6972722,9 Z" id="Path-41" sketch:type="MSShapeGroup"></path>
            <path d="M12.6972722,6 L12.6972722,4 L3.20386396,4 L3.20386396,6 L12.6972722,6 Z" id="Path-39" sketch:type="MSShapeGroup"></path>
        </g>
    </g>
</svg>