<?xml version="1.0" encoding="UTF-8" standalone="no"?>
<svg width="512px" height="512px" viewBox="0 0 512 512" version="1.1" xmlns="http://www.w3.org/2000/svg" xmlns:xlink="http://www.w3.org/1999/xlink" xmlns:sketch="http://www.bohemiancoding.com/sketch/ns">
    <!-- Generator: Sketch 3.2.2 (9983) - http://www.bohemiancoding.com/sketch -->
    <title>date</title>
    <desc>Created with Sketch.</desc>
    <defs></defs>
    <g id="Page-1" stroke="none" stroke-width="1" fill="none" fill-rule="evenodd" sketch:type="MSPage">
        <g id="date" sketch:type="MSArtboardGroup" fill="#0B0C0C">
            <path d="M32.004,64 C14.329,64 0,76.5409535 0,92.0103759 L0,484.099624 C0,499.569047 14.329,512.11 32.004,512.11 L479.996,512.11 C497.671,512.11 512,499.569047 512,484.099624 L512,92.0103759 C512,76.5400783 497.671,64 479.996,64 L32.004,64 Z M88.003,128 C74.74675,128 64,136.955625 64,148.0025 L64,427.9975 C64,439.044375 74.74675,448 88.003,448 L423.997,448 C437.25325,448 448,439.044375 448,427.9975 L448,148.0025 C448,136.955 437.25325,128 423.997,128 L88.003,128 Z M352,0 L416,0 L416,64 L352,64 L352,0 Z M224,0 L288,0 L288,64 L224,64 L224,0 Z M96,0 L160,0 L160,64 L96,64 L96,0 Z M352,192 L416,192 L416,256 L352,256 L352,192 Z M224,192 L288,192 L288,256 L224,256 L224,192 Z M96,192 L160,192 L160,256 L96,256 L96,192 Z M352,320 L416,320 L416,384 L352,384 L352,320 Z M224,320 L288,320 L288,384 L224,384 L224,320 Z M96,320 L160,320 L160,384 L96,384 L96,320 Z" id="Path" sketch:type="MSShapeGroup"></path>
        </g>
    </g>
</svg>