<?xml version="1.0" encoding="UTF-8" standalone="no"?>
<svg width="512px" height="512px" viewBox="0 0 512 512" version="1.1" xmlns="http://www.w3.org/2000/svg" xmlns:xlink="http://www.w3.org/1999/xlink" xmlns:sketch="http://www.bohemiancoding.com/sketch/ns">
    <!-- Generator: Sketch 3.0.4 (8054) - http://www.bohemiancoding.com/sketch -->
    <title>dob</title>
    <desc>Created with Sketch.</desc>
    <defs></defs>
    <g id="Page-1" stroke="none" stroke-width="1" fill="none" fill-rule="evenodd" sketch:type="MSPage">
        <g id="dob" sketch:type="MSArtboardGroup" fill="#000000">
            <path d="M271.390854,214.319249 L316.304001,214.319249 L316.304001,276 L479.996316,276 C497.670749,276 512,290.32413 512,307.99384 L512,404.00616 C512,421.676664 497.673454,435.99801 480,436 L480,436 L480,480.00616 C480,497.677892 465.675625,512 448.005613,512 L63.9943866,512 C46.3355003,512 32,497.67587 32,480.00616 L32,436 C14.3272595,435.998009 0,421.674642 0,404.00616 L0,307.99384 C0,290.322108 14.3285375,276 32.0036842,276 L196.304001,276 L196.304001,276 L196.304001,214.319249 L242.610061,214.319249 C194.762547,207.720291 151.193442,169.348607 161,125.719249 C181.90332,32.7204207 280.26465,92.761827 257,-0.226063674 C319.642578,18.4169052 353,76.2345352 353,125.719249 C353,170.639033 317.583445,207.838302 271.390842,214.31925 Z M58,335 L58,376 L453,376 L453,335 L58,335 Z M92,412 L92,453 L420,453 L420,412 L92,412 Z" id="Rectangle-126" sketch:type="MSShapeGroup"></path>
        </g>
    </g>
</svg>