<?xml version="1.0" encoding="UTF-8" standalone="no"?>
<svg width="512px" height="512px" viewBox="0 0 512 512" version="1.1" xmlns="http://www.w3.org/2000/svg" xmlns:xlink="http://www.w3.org/1999/xlink" xmlns:sketch="http://www.bohemiancoding.com/sketch/ns">
    <!-- Generator: Sketch 3.0.4 (8054) - http://www.bohemiancoding.com/sketch -->
    <title>dontcall</title>
    <desc>Created with Sketch.</desc>
    <defs></defs>
    <g id="Page-1" stroke="none" stroke-width="1" fill="none" fill-rule="evenodd" sketch:type="MSPage">
        <g id="dontcall" sketch:type="MSArtboardGroup" fill="#000000">
            <g id="icon-DontCall" sketch:type="MSLayerGroup" transform="translate(0.000000, -9.000000)">
                <path d="M260.13746,417.657738 C245.628609,420.465944 223.163291,388.171575 182.444903,346.984554 C132.833992,297.372915 117.857114,283.331886 114.580922,261.802306 C136.578212,262.270341 157.639448,256.185895 176.360546,244.485036 C182.444903,240.272727 188.061232,235.592384 193.209534,230.444006 L240.01228,183.640574 C257.329296,166.323304 256.861268,137.773209 239.076225,119.987905 L190.40137,71.3123349 L141.726514,22.6367647 C123.941471,4.85146025 95.391796,4.38342593 78.0747801,21.7006961 L31.2720345,68.5041289 C26.1237325,73.6525065 21.4434579,79.2689185 17.2312108,85.3533647 C-4.76607959,119.519871 -5.7021345,164.451166 14.4230461,200.489809 C22.3795128,241.67683 51.8652426,307.201636 143.130596,398.46833 C245.160582,500.499814 307.923064,518.285118 341.574238,515.476912 C372.932077,525.773668 407.566109,521.561359 435.647756,503.776054 C441.732113,499.563745 447.348443,494.883402 452.496745,489.735024 L499.29949,442.931592 C516.616506,425.614321 516.148479,397.064227 498.363436,379.278923 L449.68858,330.603353 L401.013725,281.927783 C383.228681,264.142478 354.679007,263.674444 337.361991,280.991714 L290.559245,327.795147 C285.410943,332.943524 280.730669,338.559936 276.518421,344.644383 C262.477598,366.641996 256.861268,392.383884 260.13746,417.657738 Z" id="Call_icon-2" sketch:type="MSShapeGroup"></path>
                <path d="M520.977581,227.932742 L474.932742,273.977581 L383.913682,182.958521 L292.808303,274.063899 L246.936102,228.191693 L338.041479,137.086317 L247.022419,46.0672578 L293.067258,0.0224192648 L384.086318,91.0414793 L475.191697,-0.0638985239 L521.063898,45.8083068 L429.958521,136.913683 L520.977581,227.932742 Z" id="Line-5" sketch:type="MSShapeGroup"></path>
            </g>
        </g>
    </g>
</svg>