<?xml version="1.0" encoding="UTF-8" standalone="no"?>
<svg width="512px" height="512px" viewBox="0 0 512 512" version="1.1" xmlns="http://www.w3.org/2000/svg" xmlns:xlink="http://www.w3.org/1999/xlink" xmlns:sketch="http://www.bohemiancoding.com/sketch/ns">
    <!-- Generator: Sketch 3.2 (9961) - http://www.bohemiancoding.com/sketch -->
    <title>download</title>
    <desc>Created with Sketch.</desc>
    <defs></defs>
    <g id="Page-1" stroke="none" stroke-width="1" fill="none" fill-rule="evenodd" sketch:type="MSPage">
        <g id="download" sketch:type="MSArtboardGroup" fill="#0B0C0C">
            <path d="M352,128 L479.996,128 C497.671,128 512,142.325 512,159.997 L512,480.003 C512,497.676 497.671,512 479.996,512 L32.004,512 C14.329,512 0,497.674 0,480.003 L0,159.997 C0,142.323 14.329,128 32.004,128 L160,128 L160,192 L95.997,192 C78.326,192 64,206.335 64,224.002 L64,415.998 C64,433.672 78.324,448 95.997,448 L416.003,448 C433.674,448 448,433.665 448,415.998 L448,224.002 C448,206.328 433.677,192 416.003,192 L352,192 L352,128 Z M256,383 L160,288 L352,288 L256,383 Z M224,0 L288,0 L288,288 L224,288 L224,0 Z" id="download-icon" sketch:type="MSShapeGroup" transform="translate(256.000000, 256.000000) scale(-1, 1) translate(-256.000000, -256.000000) "></path>
        </g>
    </g>
</svg>