<?xml version="1.0" encoding="UTF-8" standalone="no"?>
<svg width="512px" height="512px" viewBox="0 0 512 512" version="1.1" xmlns="http://www.w3.org/2000/svg" xmlns:xlink="http://www.w3.org/1999/xlink" xmlns:sketch="http://www.bohemiancoding.com/sketch/ns">
    <!-- Generator: Sketch 3.0.4 (8054) - http://www.bohemiancoding.com/sketch -->
    <title>edit</title>
    <desc>Created with Sketch.</desc>
    <defs></defs>
    <g id="Page-1" stroke="none" stroke-width="1" fill="none" fill-rule="evenodd" sketch:type="MSPage">
        <g id="edit" sketch:type="MSArtboardGroup" fill="#0B0C0C">
            <g id="icon-Edit" sketch:type="MSLayerGroup">
                <path d="M512,81.0048226 L512,509.990355 C512,511.099374 511.100251,512 509.990355,512 L2.0096451,512 C0.900626183,512 0,511.100251 0,509.990355 L0,2.0096451 C0,0.900626183 0.899748761,0 2.0096451,0 L431.176818,0 L352.363281,0 L288.121094,64 L65.0017095,64 C64.4484806,64 64,64.4555384 64,65.0017095 L64,446.998291 C64,447.551519 64.4555384,448 65.0017095,448 L446.998291,448 C447.551519,448 448,447.544462 448,446.998291 L448,224 L512,160 L512,81.0048226 L512,81.0048226 Z M415.933594,0 L128,288 L128,384 L224,384 L512,96.7832031 L512,64.4882813 L448,0 L415.933594,0 Z" id="edit_icon-2" sketch:type="MSShapeGroup"></path>
            </g>
        </g>
    </g>
</svg>