<?xml version="1.0" encoding="UTF-8" standalone="no"?>
<svg width="16px" height="16px" viewBox="0 0 16 16" version="1.1" xmlns="http://www.w3.org/2000/svg" xmlns:xlink="http://www.w3.org/1999/xlink" xmlns:sketch="http://www.bohemiancoding.com/sketch/ns">
    <!-- Generator: Sketch 3.0.3 (7891) - http://www.bohemiancoding.com/sketch -->
    <title>Edit_icon</title>
    <desc>Created with Sketch.</desc>
    <defs></defs>
    <g id="Page-1" stroke="none" stroke-width="1" fill="none" fill-rule="evenodd" sketch:type="MSPage">
        <g id="Edit_icon" sketch:type="MSArtboardGroup" fill="#0B0C0C">
            <path d="M16,3.49703014 L16,14.0059397 C16,15.1054862 15.1072288,16 14.0059397,16 L1.99406028,16 C0.894513756,16 0,15.1072288 0,14.0059397 L0,1.99406028 C0,0.894513756 0.892771196,0 1.99406028,0 L12.5086461,0 L11.0113525,0 L9.00378418,2 L3.00247329,2 C2.44882258,2 2,2.45576096 2,3.00247329 L2,12.9975267 C2,13.5511774 2.45576096,14 3.00247329,14 L12.9975267,14 C13.5511774,14 14,13.544239 14,12.9975267 L14,7 L16,5 L16,3.49703014 L16,3.49703014 Z M12.9979248,0 L4,9 L4,12 L7,12 L16,3.0244751 L16,2.01525879 L14,0 L12.9979248,0 Z" id="edit_icon" sketch:type="MSShapeGroup"></path>
        </g>
    </g>
</svg>