<?xml version="1.0" encoding="UTF-8" standalone="no"?>
<svg width="512px" height="512px" viewBox="0 0 512 512" version="1.1" xmlns="http://www.w3.org/2000/svg" xmlns:xlink="http://www.w3.org/1999/xlink" xmlns:sketch="http://www.bohemiancoding.com/sketch/ns">
    <!-- Generator: Sketch 3.2 (9961) - http://www.bohemiancoding.com/sketch -->
    <title>email</title>
    <desc>Created with Sketch.</desc>
    <defs></defs>
    <g id="Page-1" stroke="none" stroke-width="1" fill="none" fill-rule="evenodd" sketch:type="MSPage">
        <g id="email" sketch:type="MSArtboardGroup" fill="#0B0C0C">
            <g id="Imported-EPS" sketch:type="MSLayerGroup" transform="translate(0.000000, 64.000000)">
                <path d="M479.996,0 L32.004,0 C14.329,0 0,14.323 0,31.997 L0,352.003 C0,369.674 14.329,384 32.004,384 L479.996,384 C497.671,384 512,369.676 512,352.003 L512,31.997 C512,14.325 497.671,0 479.996,0 L479.996,0 Z M402.895,64 L255.815,211.949 L109.175,64 L402.895,64 L402.895,64 Z M448,287.998 C448,305.665 433.674,320 416.003,320 L95.997,320 C78.324,320 64,305.672 64,287.998 L64,109.742 L255.815,301.229 L448,109.283 L448,287.998 L448,287.998 Z" id="Page-1" sketch:type="MSShapeGroup"></path>
            </g>
        </g>
    </g>
</svg>