<?xml version="1.0" encoding="UTF-8" standalone="no"?>
<svg width="512px" height="512px" viewBox="0 0 512 512" version="1.1" xmlns="http://www.w3.org/2000/svg" xmlns:xlink="http://www.w3.org/1999/xlink" xmlns:sketch="http://www.bohemiancoding.com/sketch/ns">
    <!-- Generator: Sketch 3.0.4 (8054) - http://www.bohemiancoding.com/sketch -->
    <title>email</title>
    <desc>Created with Sketch.</desc>
    <defs></defs>
    <g id="Page-1" stroke="none" stroke-width="1" fill="none" fill-rule="evenodd" sketch:type="MSPage">
        <g id="email" sketch:type="MSArtboardGroup" fill="#0B0C0C">
            <path d="M64,173.742393 L64,351.998232 C64,369.67232 78.3235467,384 95.9969832,384 L416.003017,384 C433.674463,384 448,369.664719 448,351.998232 L448,173.283491 L255.815141,365.228729 L64,173.742393 Z M402.895204,128 L109.175429,128 L255.81514,275.949219 L402.895204,128 Z M32.0036842,64 C14.3285375,64 0,78.3235467 0,95.9969832 L0,416.003017 C0,433.674463 14.3292507,448 32.0036842,448 L479.996316,448 C497.671463,448 512,433.676453 512,416.003017 L512,95.9969832 C512,78.3255373 497.670749,64 479.996316,64 L32.0036842,64 Z" sketch:type="MSShapeGroup"></path>
        </g>
    </g>
</svg>