<?xml version="1.0" encoding="UTF-8" standalone="no"?>
<svg width="512px" height="512px" viewBox="0 0 512 512" version="1.1" xmlns="http://www.w3.org/2000/svg" xmlns:xlink="http://www.w3.org/1999/xlink" xmlns:sketch="http://www.bohemiancoding.com/sketch/ns">
    <!-- Generator: Sketch 3.0.4 (8054) - http://www.bohemiancoding.com/sketch -->
    <title>email</title>
    <desc>Created with Sketch.</desc>
    <defs></defs>
    <g id="Page-1" stroke="none" stroke-width="1" fill="none" fill-rule="evenodd" sketch:type="MSPage">
        <g id="email" sketch:type="MSArtboardGroup" fill="#0B0C0C">
            <g id="icon-Email" sketch:type="MSLayerGroup" transform="translate(0.000000, 64.000000)">
                <path d="M2.0096451,0 C0.899748761,0 0,0.891091581 0,1.99719584 L0,382.002804 C0,383.105825 0.900626183,384 2.0096451,384 L509.990355,384 C511.100251,384 512,383.108908 512,382.002804 L512,1.99719584 C512,0.894175037 511.099374,0 509.990355,0 L2.0096451,0 Z M65.0017095,64 C64.4484806,64 64,64.4503131 64,65.0048226 L64,318.995177 C64,319.550126 64.4555384,320 65.0017095,320 L446.998291,320 C447.551519,320 448,319.549687 448,318.995177 L448,65.0048226 C448,64.4498744 447.544462,64 446.998291,64 L65.0017095,64 Z" id="Rectangle-73" sketch:type="MSShapeGroup"></path>
                <path d="M210.374973,220.157205 L165.120139,174.902371 L66.8608643,273.161646 L112.115698,318.416479 L210.374973,220.157205 Z" id="Path-43" sketch:type="MSShapeGroup"></path>
                <path d="M233.200792,278.640477 L255.815141,301.228729 L278.42949,278.640477 L438.614349,118.640477 L393.385651,73.3595228 L233.200792,233.359523 L278.42949,233.359523 L118.614349,73.7288141 L73.3856507,119.009768 L233.200792,278.640477 Z" id="Path-40" sketch:type="MSShapeGroup"></path>
                <path d="M346.879861,174.902371 L301.625027,220.157205 L399.884302,318.416479 L445.139136,273.161646 L346.879861,174.902371 Z" id="Path-39" sketch:type="MSShapeGroup"></path>
            </g>
        </g>
    </g>
</svg>