<?xml version="1.0" encoding="UTF-8" standalone="no"?>
<svg width="512px" height="512px" viewBox="0 0 512 512" version="1.1" xmlns="http://www.w3.org/2000/svg" xmlns:xlink="http://www.w3.org/1999/xlink" xmlns:sketch="http://www.bohemiancoding.com/sketch/ns">
    <!-- Generator: Sketch 3.1.1 (8761) - http://www.bohemiancoding.com/sketch -->
    <title>feedback</title>
    <desc>Created with Sketch.</desc>
    <defs></defs>
    <g id="Page-1" stroke="none" stroke-width="1" fill="none" fill-rule="evenodd" sketch:type="MSPage">
        <g id="feedback" sketch:type="MSArtboardGroup" fill="#0B0C0C">
            <path d="M384,479.996 L384,32.004 C384,14.329 369.677,2.92987402e-14 352.003,3.03809606e-14 L31.997,4.99756768e-14 C14.326,5.10577135e-14 -5.68434189e-14,14.329 -5.68434189e-14,32.004 L0,479.996 C0,497.671 14.324,512 31.997,512 L352.003,512 C369.675,512 384,497.671 384,479.996 Z M96.002,448 C78.335,448 64,433.674 64,416.003 L64,95.997 C64,78.324 78.328,64 96.002,64 L287.998,64 C305.665,64 320,78.326 320,95.997 L320,416.003 C320,433.677 305.672,448 287.998,448 L96.002,448 Z" sketch:type="MSShapeGroup" transform="translate(192.000000, 256.000000) scale(-1, 1) translate(-192.000000, -256.000000) "></path>
            <path d="M124,124.11 L264,124.11 L264,188.11 L124,188.11 L124,124.11 Z" id="Fill-3" sketch:type="MSShapeGroup"></path>
            <path d="M124,228.11 L264,228.11 L264,292.11 L124,292.11 L124,228.11 Z" id="Fill-4" sketch:type="MSShapeGroup"></path>
            <path d="M421.029546,0.278406465 L298.938459,122.36466 L159.403717,261.894569 L135,377.001427 L250.092358,352.588043 L389.6271,213.058134 L511.718187,90.9767138 C511.72302,90.9815472 516.9624,64.8136476 482.070256,29.9215037 C447.197446,-4.95130675 421.029546,0.278406465 421.029546,0.278406465 Z" id="Fill-5" sketch:type="MSShapeGroup"></path>
        </g>
    </g>
</svg>