<?xml version="1.0" encoding="UTF-8" standalone="no"?>
<svg width="512px" height="512px" viewBox="0 0 512 512" version="1.1" xmlns="http://www.w3.org/2000/svg" xmlns:xlink="http://www.w3.org/1999/xlink" xmlns:sketch="http://www.bohemiancoding.com/sketch/ns">
    <!-- Generator: Sketch 3.2 (9961) - http://www.bohemiancoding.com/sketch -->
    <title>feedback</title>
    <desc>Created with Sketch.</desc>
    <defs></defs>
    <g id="Page-1" stroke="none" stroke-width="1" fill="none" fill-rule="evenodd" sketch:type="MSPage">
        <g id="feedback" sketch:type="MSArtboardGroup" fill="#0B0C0C">
            <path d="M96,416 L96,479.757522 C96,479.757522 103.425781,538.115606 160.266311,497.807308 C192.790785,474.74267 240.393782,440.810751 275.170126,416 L479.996316,416 C497.671463,416 512,401.680338 512,384.004938 L512,31.9950625 C512,14.3246774 497.670749,0 479.996316,0 L32.0036842,0 C14.3285375,0 0,14.3196616 0,31.9950625 L0,384.004938 C0,401.675323 14.3292507,416 32.0036842,416 L96,416 L96,416 Z M213.590096,305.744068 C213.590096,299.484322 214.793876,293.585804 217.20147,288.048336 C219.609065,282.510869 222.939521,277.655626 227.192938,273.482462 C231.446355,269.309298 236.381849,266.018968 241.99957,263.611374 C247.617291,261.203779 253.636187,260 260.056439,260 C266.316185,260 272.214703,261.203779 277.752171,263.611374 C283.289638,266.018968 288.144881,269.309298 292.318045,273.482462 C296.491209,277.655626 299.781539,282.510869 302.189133,288.048336 C304.596728,293.585804 305.800507,299.484322 305.800507,305.744068 C305.800507,312.16432 304.596728,318.183216 302.189133,323.800937 C299.781539,329.418658 296.491209,334.314027 292.318045,338.487191 C288.144881,342.660354 283.289638,345.950684 277.752171,348.358279 C272.214703,350.765873 266.316185,351.969653 260.056439,351.969653 C253.636187,351.969653 247.617291,350.765873 241.99957,348.358279 C236.381849,345.950684 231.446355,342.660354 227.192938,338.487191 C222.939521,334.314027 219.609065,329.418658 217.20147,323.800937 C214.793876,318.183216 213.590096,312.16432 213.590096,305.744068 Z M217.720425,64 L301.670178,64 L294.466569,196 L225.201096,196 L217.720425,64 Z" id="Path-5" sketch:type="MSShapeGroup"></path>
        </g>
    </g>
</svg>