<?xml version="1.0" encoding="UTF-8" standalone="no"?>
<svg width="512px" height="512px" viewBox="0 0 512 512" version="1.1" xmlns="http://www.w3.org/2000/svg" xmlns:xlink="http://www.w3.org/1999/xlink" xmlns:sketch="http://www.bohemiancoding.com/sketch/ns">
    <!-- Generator: Sketch 3.1.1 (8761) - http://www.bohemiancoding.com/sketch -->
    <title>feedback</title>
    <desc>Created with Sketch.</desc>
    <defs></defs>
    <g id="Page-1" stroke="none" stroke-width="1" fill="none" fill-rule="evenodd" sketch:type="MSPage">
        <g id="feedback" sketch:type="MSArtboardGroup" fill="#0B0C0C">
            <path d="M233.190842,188.11 L193.189456,228.11 L193.189456,228.11 L124,228.11 L124,292.11 L152.997767,292.11 L135,377.001427 L250.092358,352.588043 L320,282.682822 L320,416.003017 C320,433.676453 305.67232,448 287.998232,448 L96.0017682,448 C78.3352808,448 64,433.674463 64,416.003017 L64,95.9969832 C64,78.3235467 78.3276796,64 96.0017682,64 L287.998232,64 C305.664719,64 320,78.3255373 320,95.9969832 L320,101.303953 L298.938459,122.36466 L264,157.301909 L264,124.11 L124,124.11 L124,188.11 L233.190842,188.11 Z M384,218.685039 L384,479.996316 C384,497.670749 369.674463,512 352.003017,512 L31.9969832,512 C14.3235467,512 0,497.671463 0,479.996316 L0,32.0036842 C0,14.3292507 14.3255373,-1.49880108e-14 31.9969832,-1.49880108e-14 L352.003017,-1.49880108e-14 C369.676453,-1.49880108e-14 384,14.3285375 384,32.0036842 L384,37.3064866 L421.029546,0.278406465 C421.029546,0.278406465 447.197446,-4.95130675 482.070256,29.9215037 C516.9624,64.8136476 511.72302,90.9815472 511.718187,90.9767138 L389.6271,213.058134 L384,218.685039 Z" id="feedback-icon" sketch:type="MSShapeGroup"></path>
        </g>
    </g>
</svg>