<?xml version="1.0" encoding="UTF-8" standalone="no"?>
<svg width="512px" height="512px" viewBox="0 0 512 512" version="1.1" xmlns="http://www.w3.org/2000/svg" xmlns:xlink="http://www.w3.org/1999/xlink" xmlns:sketch="http://www.bohemiancoding.com/sketch/ns">
    <!-- Generator: Sketch 3.0.4 (8054) - http://www.bohemiancoding.com/sketch -->
    <title>folderComplete</title>
    <desc>Created with Sketch.</desc>
    <defs></defs>
    <g id="Page-1" stroke="none" stroke-width="1" fill="none" fill-rule="evenodd" sketch:type="MSPage">
        <g id="folderComplete" sketch:type="MSArtboardGroup">
            <g id="icon-case-done" sketch:type="MSLayerGroup" transform="translate(11.000000, 0.000000)">
                <path d="M436.999815,170.666667 L437.190071,170.666667 C472.37556,170.666667 495.407242,200.494709 488.508225,237.289464 L449.491775,445.377202 C442.679573,481.708944 408.224013,512 372.727034,512 L117.272966,512 C81.8624115,512 47.407242,482.171957 40.5082254,445.377202 L1.49177456,237.289464 C-5.32042694,200.957723 17.5686783,170.666667 52.8099289,170.666667 L53.00027,170.666667 C53.00009,170.599344 53,170.531998 53,170.46463 L53,68.4687037 C53,30.2610718 81.7385776,0 117.18941,0 L212.81059,0 C248.56643,0 276.898891,30.5453543 276.99973,68.2666667 L372.727034,68.2666667 C408.137589,68.2666667 437,98.9052936 437,136.699955 L437,170.500045 C437,170.555601 436.999938,170.611142 436.999815,170.666667 L436.999815,170.666667 Z" id="Rectangle-49" fill="#0B0C0C" sketch:type="MSShapeGroup"></path>
                <path d="M437.190071,238.933333 C432.052879,238.933333 424.716918,229.416706 425.751062,223.901269 L386.734611,431.989008 C385.884588,436.522465 377.609249,443.733333 372.727034,443.733333 L117.272966,443.733333 C112.23149,443.733333 104.154044,436.728504 103.265389,431.989008 L64.2489378,223.901269 C65.3162286,229.593487 58.1646774,238.933333 52.8099289,238.933333 L437.190071,238.933333 L437.190071,238.933333 Z M117,68.4687037 C117,68.1604907 212.81059,68.2666667 212.81059,68.2666667 C213.098603,68.2666667 213.181964,136.533333 213.181964,136.533333 L276.99973,136.533333 L372.727034,136.533333 C372.860504,136.533333 373,170.500045 373,170.500045 C373,170.627659 117.272966,170.666667 117.272966,170.666667 C116.984968,170.679919 117,68.4687037 117,68.4687037 Z" id="Path" fill="#FFFFFF" sketch:type="MSShapeGroup"></path>
                <path d="M340.374558,344.830871 L510.516518,104.791751 L471.313785,65.7599883 L340.374558,250.692598 L280.116518,165.478188 L240.913785,204.509951 L340.374558,344.830871 Z" id="Path" stroke="#FFFFFF" stroke-width="2" fill="#0B0C0C" sketch:type="MSShapeGroup"></path>
            </g>
        </g>
    </g>
</svg>