<?xml version="1.0" encoding="UTF-8" standalone="no"?>
<svg width="512px" height="512px" viewBox="0 0 512 512" version="1.1" xmlns="http://www.w3.org/2000/svg" xmlns:xlink="http://www.w3.org/1999/xlink" xmlns:sketch="http://www.bohemiancoding.com/sketch/ns">
    <!-- Generator: Sketch 3.2 (9961) - http://www.bohemiancoding.com/sketch -->
    <title>folderAccepted</title>
    <desc>Created with Sketch.</desc>
    <defs></defs>
    <g id="Page-1" stroke="none" stroke-width="1" fill="none" fill-rule="evenodd" sketch:type="MSPage">
        <g id="folderAccepted" sketch:type="MSArtboardGroup" fill="#0B0C0C">
            <path d="M456.83941,170.666667 L457.038423,170.666667 C493.845943,170.666667 517.939372,200.49471 510.722315,237.289465 L469.907228,445.377203 C462.780988,481.708944 426.737046,512 389.603677,512 L122.373325,512 C85.3303632,512 49.2868302,482.171958 42.0697729,445.377203 L1.25468613,237.289465 C-5.87155394,200.957723 18.0727258,170.666667 54.9385779,170.666667 L55.1376936,170.666667 C55.1375053,170.599344 55.1374111,170.531998 55.1374111,170.46463 L55.1374111,68.4687037 C55.1374111,30.2610718 85.2008206,0 122.285916,0 L222.315177,0 C259.719341,0 289.357912,30.5453543 289.463399,68.2666667 L389.603677,68.2666667 C426.646638,68.2666667 456.83959,98.9052936 456.83959,136.699956 L456.83959,170.500045 C456.83959,170.555602 456.839525,170.611142 456.839396,170.666667 L456.83941,170.666667 Z M212.218197,447.68881 L424.895647,194.52255 L375.892232,153.356238 L212.218198,348.40235 L136.895647,258.527777 L87.8922318,299.694089 L212.218197,447.68881 Z" sketch:type="MSShapeGroup"></path>
        </g>
    </g>
</svg>