<?xml version="1.0" encoding="UTF-8" standalone="no"?>
<svg width="512px" height="512px" viewBox="0 0 512 512" version="1.1" xmlns="http://www.w3.org/2000/svg" xmlns:xlink="http://www.w3.org/1999/xlink" xmlns:sketch="http://www.bohemiancoding.com/sketch/ns">
    <!-- Generator: Sketch 3.1 (8751) - http://www.bohemiancoding.com/sketch -->
    <title>folder</title>
    <desc>Created with Sketch.</desc>
    <defs></defs>
    <g id="Page-1" stroke="none" stroke-width="1" fill="none" fill-rule="evenodd" sketch:type="MSPage">
        <g id="folder" sketch:type="MSArtboardGroup" fill="#0B0C0C">
            <path d="M442.707448,171 L442.897691,171 C478.08318,171 501.114862,200.828043 494.215846,237.622798 L455.199395,445.710536 C448.387193,482.042277 413.931633,512.333333 378.434654,512.333333 L122.980587,512.333333 C87.5700317,512.333333 53.1148622,482.505291 46.2158456,445.710536 L7.19939472,237.622798 C0.387193218,201.291056 23.2762984,171 58.5175491,171 L58.7078902,171 C58.7077102,170.932677 58.7076202,170.865331 58.7076202,170.797963 L58.7076202,68.802037 C58.7076202,30.5944051 87.4461978,0.333333333 122.89703,0.333333333 L218.51821,0.333333333 C254.27405,0.333333333 282.606511,30.8786876 282.70735,68.6 L378.434654,68.6 C413.845209,68.6 442.70762,99.2386269 442.70762,137.033289 L442.70762,170.833378 C442.70762,170.888935 442.707558,170.944475 442.707435,171 L442.707448,171 Z M117.367871,239.008253 L72.7379023,239.068439 L108.973009,432.322341 C109.861664,437.061838 117.939111,444.066667 122.980587,444.066667 L378.434654,444.066667 C383.316869,444.066667 391.592208,436.855798 392.442231,432.322341 L428.767362,238.588309 L387.155756,238.644425 C384.303887,239.054798 381.392605,239.266667 378.434654,239.266667 L122.980587,239.266667 C121.089946,239.266667 119.217972,239.179325 117.367871,239.008253 L117.367871,239.008253 Z M122.707621,170.833377 C122.707621,170.833377 378.70762,170.960992 378.70762,170.833378 C378.70762,170.833378 378.568124,136.866667 378.434654,136.866667 L282.70735,136.866667 L218.889584,136.866667 C218.889584,136.866667 218.806223,68.6 218.51821,68.6 C218.51821,68.6 122.70762,68.493824 122.70762,68.802037 L122.707621,170.833377 Z" sketch:type="MSShapeGroup"></path>
        </g>
    </g>
</svg>