<?xml version="1.0" encoding="UTF-8" standalone="no"?>
<svg width="512px" height="512px" viewBox="0 0 512 512" version="1.1" xmlns="http://www.w3.org/2000/svg" xmlns:xlink="http://www.w3.org/1999/xlink" xmlns:sketch="http://www.bohemiancoding.com/sketch/ns">
    <!-- Generator: Sketch 3.2 (9961) - http://www.bohemiancoding.com/sketch -->
    <title>folderRejected</title>
    <desc>Created with Sketch.</desc>
    <defs></defs>
    <g id="Page-1" stroke="none" stroke-width="1" fill="none" fill-rule="evenodd" sketch:type="MSPage">
        <g id="folderRejected" sketch:type="MSArtboardGroup" fill="#0B0C0C">
            <path d="M456.83959,136.699956 C456.83959,98.9052936 426.646638,68.2666667 389.603677,68.2666667 L289.463399,68.2666667 C289.357912,30.5453543 259.719341,0 222.315177,0 L122.285916,0 C85.2008206,0 55.1374111,30.2610718 55.1374111,68.4687037 L55.1374111,170.46463 C18.0727258,170.666667 -5.87155394,200.957723 1.25468613,237.289465 L42.0697729,445.377203 C49.2868302,482.171958 85.3303632,512 122.373325,512 L389.603677,512 C426.737046,512 462.780988,481.708944 469.907228,445.377203 L510.722315,237.289465 C517.939372,200.49471 493.845943,170.666667 457.038423,170.666667 C456.839525,170.611142 456.83959,136.699956 456.83959,136.699956 Z M298.868012,300.420426 L382.776207,384.328622 L404,405.552414 L361.552414,448 L340.328622,426.776207 L256.420426,342.868011 L172.432654,426.855781 L151.288436,448 L109,405.711561 L130.144219,384.567342 L214.131988,300.579574 L130.223793,216.671378 L109,195.447586 L151.447586,153 L172.671378,174.223793 L256.579574,258.131989 L340.567346,174.144219 L361.711564,153 L404,195.288439 L382.855781,216.432658 L298.868012,300.420426 L298.868012,300.420426 Z" sketch:type="MSShapeGroup"></path>
        </g>
    </g>
</svg>