<?xml version="1.0" encoding="UTF-8" standalone="no"?>
<svg width="512px" height="512px" viewBox="0 0 512 512" version="1.1" xmlns="http://www.w3.org/2000/svg" xmlns:xlink="http://www.w3.org/1999/xlink" xmlns:sketch="http://www.bohemiancoding.com/sketch/ns">
    <!-- Generator: Sketch 3.0.4 (8054) - http://www.bohemiancoding.com/sketch -->
    <title>folder</title>
    <desc>Created with Sketch.</desc>
    <defs></defs>
    <g id="Page-1" stroke="none" stroke-width="1" fill="none" fill-rule="evenodd" sketch:type="MSPage">
        <g id="folder" sketch:type="MSArtboardGroup" fill="#0B0C0C">
            <g id="icon-case" sketch:type="MSLayerGroup">
                <path d="M128.272966,238.933333 L383.727034,238.933333 C419.224013,238.933333 448,208.421554 448,170.500045 L448,136.699955 C448,98.9052936 419.137589,68.2666667 383.727034,68.2666667 L287.99973,68.2666667 C287.898891,30.5453543 259.56643,0 223.81059,0 L128.18941,0 C92.7385776,0 64,30.2610718 64,68.4687037 L64,170.46463 C64,189.377637 71.0968635,206.499593 82.6731612,218.890906 C94.4741714,231.261622 110.553763,238.933333 128.272966,238.933333 Z M104.339017,145.298855 L71.3739391,151.696384 L82.6731612,218.890906 L128.007064,170.703571 C127.984968,170.679919 128,68.4687037 128,68.4687037 C128,68.1604907 223.81059,68.2666667 223.81059,68.2666667 C224.098603,68.2666667 224.181964,136.533333 224.181964,136.533333 L287.99973,136.533333 L383.727034,136.533333 C383.860504,136.533333 384,170.500045 384,170.500045 C384,170.627659 128.272966,170.666667 128.272966,170.666667 C128.156477,170.666667 104.339017,145.298855 104.339017,145.298855 Z" id="Rectangle-48" sketch:type="MSShapeGroup"></path>
                <path d="M12.4917746,237.289464 L51.5082254,445.377202 C58.407242,482.171957 92.8624115,512 128.272966,512 L383.727034,512 C419.224013,512 453.679573,481.708944 460.491775,445.377202 L499.508225,237.289464 C506.407242,200.494709 483.37556,170.666667 448.190071,170.666667 L63.8099289,170.666667 C28.5686783,170.666667 5.67957306,200.957723 12.4917746,237.289464 Z M448.190071,238.933333 C443.052879,238.933333 435.716918,229.416706 436.751062,223.901269 L397.734611,431.989008 C396.884588,436.522465 388.609249,443.733333 383.727034,443.733333 L128.272966,443.733333 C123.23149,443.733333 115.154044,436.728504 114.265389,431.989008 L75.2489378,223.901269 C76.3162286,229.593487 69.1646774,238.933333 63.8099289,238.933333 L448.190071,238.933333 Z" id="Rectangle-49" sketch:type="MSShapeGroup"></path>
            </g>
        </g>
    </g>
</svg>