<?xml version="1.0" encoding="UTF-8" standalone="no"?>
<svg width="512px" height="512px" viewBox="0 0 512 512" version="1.1" xmlns="http://www.w3.org/2000/svg" xmlns:xlink="http://www.w3.org/1999/xlink" xmlns:sketch="http://www.bohemiancoding.com/sketch/ns">
    <!-- Generator: Sketch 3.2 (9961) - http://www.bohemiancoding.com/sketch -->
    <title>folder</title>
    <desc>Created with Sketch.</desc>
    <defs></defs>
    <g id="Page-1" stroke="none" stroke-width="1" fill="none" fill-rule="evenodd" sketch:type="MSPage">
        <g id="folder" sketch:type="MSArtboardGroup" fill="#0B0C0C">
            <path d="M510.722315,237.289465 L469.907228,445.377203 C462.780988,481.708944 426.737046,512 389.603677,512 L122.373325,512 C85.3303632,512 49.2868302,482.171958 42.0697729,445.377203 L1.25468613,237.289465 C-5.87155394,200.957723 18.0727258,170.666667 54.9385779,170.666667 C55.1375053,170.599344 55.1374111,68.4687037 55.1374111,68.4687037 C55.1374111,30.2610718 85.2008206,0 122.285916,0 L222.315177,0 C259.719341,0 289.357912,30.5453543 289.463399,68.2666667 L389.603677,68.2666667 C426.646638,68.2666667 456.83959,98.9052936 456.83959,136.699956 L456.83959,170.500045 C493.845943,170.666667 517.939372,200.49471 510.722315,237.289465 Z M116.501866,238.67492 L69.8144812,238.735106 L107.720005,431.989008 C108.649627,436.728505 117.09944,443.733334 122.373325,443.733334 L389.603677,443.733334 C394.710959,443.733334 403.367787,436.522465 404.256995,431.989008 L442.256694,238.254976 L398.726817,238.311092 C395.743478,238.721465 392.697988,238.933334 389.603677,238.933334 L122.373325,238.933334 C120.395526,238.933334 118.437255,238.845992 116.501866,238.67492 L116.501866,238.67492 L116.501866,238.67492 Z M122.087775,170.500044 C122.087775,170.500044 389.889227,170.627659 389.889227,170.500045 C389.889227,170.500045 389.7433,136.533334 389.603677,136.533334 L289.463399,136.533334 L222.703671,136.533334 C222.703671,136.533334 222.616467,68.2666667 222.315177,68.2666667 C222.315177,68.2666667 122.087774,68.1604907 122.087774,68.4687037 L122.087775,170.500044 L122.087775,170.500044 Z" sketch:type="MSShapeGroup"></path>
        </g>
    </g>
</svg>