<?xml version="1.0" encoding="UTF-8" standalone="no"?>
<svg width="512px" height="512px" viewBox="0 0 512 512" version="1.1" xmlns="http://www.w3.org/2000/svg" xmlns:xlink="http://www.w3.org/1999/xlink" xmlns:sketch="http://www.bohemiancoding.com/sketch/ns">
    <!-- Generator: Sketch 3.1 (8751) - http://www.bohemiancoding.com/sketch -->
    <title>folderRejected</title>
    <desc>Created with Sketch.</desc>
    <defs></defs>
    <g id="Page-1" stroke="none" stroke-width="1" fill="none" fill-rule="evenodd" sketch:type="MSPage">
        <g id="folderRejected" sketch:type="MSArtboardGroup" fill="#0B0C0C">
            <path d="M469.585696,402.209621 L461.491775,445.377202 C454.679573,481.708944 420.224013,512 384.727034,512 L129.272966,512 C93.8624115,512 59.407242,482.171957 52.5082254,445.377202 L13.4917746,237.289464 C6.67957306,200.957723 29.5686783,170.666667 64.8099289,170.666667 L65.00027,170.666667 C65.00009,170.599344 65,170.531998 65,170.46463 L65,68.4687037 C65,30.2610718 93.7385776,0 129.18941,0 L224.81059,0 C226.029092,0 227.238972,0.0354734496 228.439408,0.10549547 L155.15625,0.105495468 L106.921875,45.8515625 L129,68.767781 L129.000001,170.500044 C129.000001,170.500044 174.450381,170.522701 227.049596,170.539375 L227.730469,171.246094 L153.643278,238.933333 L129.272966,238.933333 C127.382326,238.933333 125.510352,238.845992 123.660251,238.674919 L123.660251,238.674919 L79.0302821,238.735106 L115.265389,431.989008 C116.154044,436.728504 124.23149,443.733333 129.272966,443.733333 L384.727034,443.733333 C389.609249,443.733333 397.884588,436.522465 398.734611,431.989008 L414.861583,345.978489 L469.585696,402.209621 Z M392.612827,167.409636 L487.898405,262.695214 L512,286.79681 L463.79681,335 L439.695214,310.898405 L344.409636,215.612826 L249.033692,310.988769 L225.022461,335 L177,286.977535 L201.011232,262.966304 L296.387173,167.590364 L201.101595,72.3047855 L177,48.2031903 L225.20319,0 L249.304786,24.1015952 L344.590364,119.387174 L439.966308,24.0112312 L463.977539,0 L512,48.0224649 L487.988768,72.0336961 L392.612827,167.409636 L392.612827,167.409636 Z" id="folderComplete" sketch:type="MSShapeGroup"></path>
        </g>
    </g>
</svg>