<?xml version="1.0" encoding="UTF-8" standalone="no"?>
<svg width="16px" height="16px" viewBox="0 0 16 16" version="1.1" xmlns="http://www.w3.org/2000/svg" xmlns:xlink="http://www.w3.org/1999/xlink" xmlns:sketch="http://www.bohemiancoding.com/sketch/ns">
    <!-- Generator: Sketch 3.0.3 (7891) - http://www.bohemiancoding.com/sketch -->
    <title>Folder_icon</title>
    <desc>Created with Sketch.</desc>
    <defs></defs>
    <g id="Page-1" stroke="none" stroke-width="1" fill="none" fill-rule="evenodd" sketch:type="MSPage">
        <g id="Folder_icon" sketch:type="MSArtboardGroup" fill="#0B0C0C">
            <path d="M4.0085302,8 L11.9914698,8 C13.1007504,8 14,7.1061002 14,5.9951185 L14,5.0048815 C14,3.89761602 13.0980496,3 11.9914698,3 L8.99999156,3 C8.99684035,1.89488343 8.11145094,1 6.99408095,1 L4.00591905,1 C2.89808055,1 2,1.88655484 2,3.00591905 L2,5.99408095 C2,6.54817296 2.22177698,7.04979277 2.58353629,7.41281952 C2.95231786,7.77524284 3.45480509,8 4.0085302,8 Z M3.26059427,5.25680241 L2.2304356,5.44422999 L2.58353629,7.41281952 L4.00022075,6.00108118 C3.99953024,6.00038826 4,3.00591905 4,3.00591905 C4,2.99688938 6.99408095,3 6.99408095,3 C7.00308133,3 7.00568638,5 7.00568638,5 L8.99999156,5 L11.9914698,5 C11.9956407,5 12,5.9951185 12,5.9951185 C12,5.99885719 4.0085302,6 4.0085302,6 C4.0048899,6 3.26059427,5.25680241 3.26059427,5.25680241 Z" id="Rectangle-46" sketch:type="MSShapeGroup"></path>
            <path d="M0.390367955,7.95183977 L1.60963205,14.0481602 C1.82522631,15.1261316 2.90195036,16 4.0085302,16 L11.9914698,16 C13.1007504,16 14.1774867,15.1125667 14.390368,14.0481602 L15.609632,7.95183977 C15.8252263,6.87386843 15.1054862,6 14.0059397,6 L1.99406028,6 C0.892771196,6 0.177486658,6.88743329 0.390367955,7.95183977 Z M14.0059397,8 C13.8454025,8 13.6161537,7.72119257 13.6484707,7.5596075 L12.4292066,13.655928 C12.4026434,13.7887441 12.144039,14 11.9914698,14 L4.0085302,14 C3.85098408,14 3.59856388,13.7947804 3.5707934,13.655928 L2.35152931,7.5596075 C2.38488214,7.72637169 2.16139617,8 1.99406028,8 L14.0059397,8 Z" id="Rectangle-47" sketch:type="MSShapeGroup"></path>
        </g>
    </g>
</svg>