<?xml version="1.0" encoding="UTF-8" standalone="no"?>
<svg width="512px" height="512px" viewBox="0 0 512 512" version="1.1" xmlns="http://www.w3.org/2000/svg" xmlns:xlink="http://www.w3.org/1999/xlink" xmlns:sketch="http://www.bohemiancoding.com/sketch/ns">
    <!-- Generator: Sketch 3.0.4 (8054) - http://www.bohemiancoding.com/sketch -->
    <title>folderComplete</title>
    <desc>Created with Sketch.</desc>
    <defs></defs>
    <g id="Page-1" stroke="none" stroke-width="1" fill="none" fill-rule="evenodd" sketch:type="MSPage">
        <g id="folderComplete" sketch:type="MSArtboardGroup" fill="#0B0C0C">
            <path d="M480.027752,180.015037 C496.529558,191.636257 505.07431,212.937012 500.508225,237.289464 L461.491775,445.377202 C454.679573,481.708944 420.224013,512 384.727034,512 L129.272966,512 C93.8624115,512 59.407242,482.171957 52.5082254,445.377202 L13.4917746,237.289464 C6.67957306,200.957723 29.5686783,170.666667 64.8099289,170.666667 L65.00027,170.666667 C65.00009,170.599344 65,170.531998 65,170.46463 L65,68.4687037 C65,30.2610718 93.7385776,0 129.18941,0 L224.81059,0 C260.56643,0 288.898891,30.5453543 288.99973,68.2666667 L361.479068,68.2666667 L306.379631,136.533333 L288.99973,136.533333 L280.678655,136.533333 L224.999023,68.1933594 L224.830165,68.3736183 C224.823747,68.3028731 224.817223,68.2666667 224.81059,68.2666667 C224.81059,68.2666667 129,68.1604907 129,68.4687037 L129.000001,170.500044 C129.000001,170.500044 129.143521,170.500115 129.423764,170.500253 L175.277616,238.60531 L79.0302821,238.735106 L115.265389,431.989008 C116.154044,436.728504 124.23149,443.733333 129.272966,443.733333 L384.727034,443.733333 C389.609249,443.733333 397.884588,436.522465 398.734611,431.989008 L433.262386,247.840875 L480.027752,180.015037 L480.027752,180.015037 Z M300.586874,335 L512,46.8541916 L463.2879,0 L300.586874,221.9953 L225.7121,119.702911 L177,166.557102 L300.586874,335 Z" sketch:type="MSShapeGroup"></path>
        </g>
    </g>
</svg>