<?xml version="1.0" encoding="UTF-8" standalone="no"?>
<svg width="512px" height="512px" viewBox="0 0 512 512" version="1.1" xmlns="http://www.w3.org/2000/svg" xmlns:xlink="http://www.w3.org/1999/xlink" xmlns:sketch="http://www.bohemiancoding.com/sketch/ns">
    <!-- Generator: Sketch 3.0.4 (8054) - http://www.bohemiancoding.com/sketch -->
    <title>form</title>
    <desc>Created with Sketch.</desc>
    <defs></defs>
    <g id="Page-1" stroke="none" stroke-width="1" fill="none" fill-rule="evenodd" sketch:type="MSPage">
        <g id="form" sketch:type="MSArtboardGroup" fill="#0B0C0C">
            <g id="icon-Form" sketch:type="MSLayerGroup">
                <path d="M2.0096451,0 C0.899748761,0 0,0.900626183 0,2.0096451 L0,509.990355 C0,511.100251 0.900626183,512 2.0096451,512 L509.990355,512 C511.100251,512 512,511.099374 512,509.990355 L512,2.0096451 C512,0.899748761 511.099374,0 509.990355,0 L2.0096451,0 Z M65.0017095,64 C64.4484806,64 64,64.4555384 64,65.0017095 L64,446.998291 C64,447.551519 64.4555384,448 65.0017095,448 L446.998291,448 C447.551519,448 448,447.544462 448,446.998291 L448,65.0017095 C448,64.4484806 447.544462,64 446.998291,64 L65.0017095,64 Z" id="Rectangle-141" sketch:type="MSShapeGroup"></path>
                <rect id="Rectangle-143" sketch:type="MSShapeGroup" x="224" y="128" width="160" height="64"></rect>
                <rect id="Rectangle-142-copy-4" sketch:type="MSShapeGroup" x="224" y="224" width="160" height="64"></rect>
                <rect id="Rectangle-142-copy-5" sketch:type="MSShapeGroup" x="128" y="128" width="64" height="64"></rect>
                <rect id="Rectangle-142-copy-6" sketch:type="MSShapeGroup" x="128" y="224" width="64" height="64"></rect>
                <rect id="Rectangle-142-copy-7" sketch:type="MSShapeGroup" x="128" y="320" width="64" height="64"></rect>
            </g>
        </g>
    </g>
</svg>