<?xml version="1.0" encoding="UTF-8" standalone="no"?>
<svg width="512px" height="512px" viewBox="0 0 512 512" version="1.1" xmlns="http://www.w3.org/2000/svg" xmlns:xlink="http://www.w3.org/1999/xlink" xmlns:sketch="http://www.bohemiancoding.com/sketch/ns">
    <!-- Generator: Sketch 3.2 (9961) - http://www.bohemiancoding.com/sketch -->
    <title>historicalCase</title>
    <desc>Created with Sketch.</desc>
    <defs></defs>
    <g id="Page-1" stroke="none" stroke-width="1" fill="none" fill-rule="evenodd" sketch:type="MSPage">
        <g id="historicalCase" sketch:type="MSArtboardGroup" fill="#0B0C0C">
            <path d="M124.027221,253 L193,253 L96.5,392 L0,253 L60.0195043,253 C61.6253306,129.566352 162.185182,30 286,30 C410.816353,30 512,131.183647 512,256 C512,380.816353 410.816353,482 286,482 C228.217141,482 175.499155,460.314702 135.540351,424.638415 L178.164552,376.897683 C207.671679,403.242434 245.603692,418 286,418 C375.470129,418 448,345.470129 448,256 C448,166.529871 375.470129,94 286,94 C197.532022,94 125.626934,164.914162 124.027221,253 Z M254.140625,311.925898 L254.140625,363.469331 L300.33544,340.605285 L437.17919,272.874699 L408.78956,215.515926 L318.140625,259.707031 L318.140625,123.765625 L254.140625,123.765625 L254.140625,311.925898 Z" id="historicalcase" sketch:type="MSShapeGroup"></path>
        </g>
    </g>
</svg>