<?xml version="1.0" encoding="UTF-8" standalone="no"?>
<svg width="512px" height="512px" viewBox="0 0 512 512" version="1.1" xmlns="http://www.w3.org/2000/svg" xmlns:xlink="http://www.w3.org/1999/xlink" xmlns:sketch="http://www.bohemiancoding.com/sketch/ns">
    <!-- Generator: Sketch 3.0.4 (8054) - http://www.bohemiancoding.com/sketch -->
    <title>info</title>
    <desc>Created with Sketch.</desc>
    <defs></defs>
    <g id="Page-1" stroke="none" stroke-width="1" fill="none" fill-rule="evenodd" sketch:type="MSPage">
        <g id="info" sketch:type="MSArtboardGroup" fill="#0B0C0C">
            <path d="M256,512 C397.384903,512 512,397.384903 512,256 C512,114.615097 397.384903,0 256,0 C114.615097,0 0,114.615097 0,256 C0,397.384903 114.615097,512 256,512 Z M256,448 C362.038677,448 448,362.038677 448,256 C448,149.961323 362.038677,64 256,64 C149.961323,64 64,149.961323 64,256 C64,362.038677 149.961323,448 256,448 Z M230.6875,317.484375 L230.6875,304.890625 C230.6875,295.817663 232.075507,287.625037 234.851562,280.3125 C237.627618,272.999963 241.080709,266.330759 245.210938,260.304688 C249.341166,254.278616 253.809872,248.726588 258.617188,243.648438 C263.424503,238.570287 267.893209,233.72919 272.023438,229.125 C276.153666,224.52081 279.606757,219.984397 282.382812,215.515625 C285.158868,211.046853 286.546875,206.307317 286.546875,201.296875 C286.546875,197.505189 285.768237,194.085953 284.210938,191.039062 C282.653638,187.992172 280.554701,185.385427 277.914062,183.21875 C275.273424,181.052073 272.158872,179.427089 268.570312,178.34375 C264.981753,177.260411 261.088563,176.71875 256.890625,176.71875 C250.796845,176.71875 245.143255,177.497388 239.929688,179.054688 C234.71612,180.611987 229.875022,182.609363 225.40625,185.046875 C220.937478,187.484387 216.841164,190.260401 213.117188,193.375 C209.393211,196.489599 206.109389,199.671859 203.265625,202.921875 L169.953125,161.078125 C175.234401,155.390597 181.192675,150.075546 187.828125,145.132812 C194.463575,140.190079 201.708294,135.890643 209.5625,132.234375 C217.416706,128.578107 225.812455,125.734385 234.75,123.703125 C243.687545,121.671865 253.166617,120.65625 263.1875,120.65625 C276.4584,120.65625 288.57807,122.653626 299.546875,126.648438 C310.51568,130.643249 319.927044,136.059862 327.78125,142.898438 C335.635456,149.737013 341.729145,157.658809 346.0625,166.664062 C350.395855,175.669316 352.5625,185.182242 352.5625,195.203125 C352.5625,202.515662 351.716154,209.252573 350.023438,215.414062 C348.330721,221.575552 345.859391,227.432264 342.609375,232.984375 C339.359359,238.536486 335.364607,243.986952 330.625,249.335938 C325.885393,254.684923 320.46878,260.203097 314.375,265.890625 C310.854149,269.140641 307.50262,272.390609 304.320312,275.640625 C301.138005,278.890641 298.361991,282.377586 295.992188,286.101562 C293.622384,289.825539 291.72657,293.854145 290.304688,298.1875 C288.882805,302.520855 288.171875,307.395806 288.171875,312.8125 L288.171875,317.484375 L230.6875,317.484375 Z M220.734375,381.46875 C220.734375,376.187474 221.783844,371.177107 223.882812,366.4375 C225.981781,361.697893 228.791649,357.567726 232.3125,354.046875 C235.833351,350.526024 239.997372,347.716156 244.804688,345.617188 C249.612003,343.518219 254.656224,342.46875 259.9375,342.46875 C265.218776,342.46875 270.195289,343.518219 274.867188,345.617188 C279.539086,347.716156 283.635399,350.526024 287.15625,354.046875 C290.677101,357.567726 293.453115,361.697893 295.484375,366.4375 C297.515635,371.177107 298.53125,376.187474 298.53125,381.46875 C298.53125,386.750026 297.515635,391.726539 295.484375,396.398438 C293.453115,401.070336 290.677101,405.166649 287.15625,408.6875 C283.635399,412.208351 279.539086,414.984365 274.867188,417.015625 C270.195289,419.046885 265.218776,420.0625 259.9375,420.0625 C254.656224,420.0625 249.612003,419.046885 244.804688,417.015625 C239.997372,414.984365 235.833351,412.208351 232.3125,408.6875 C228.791649,405.166649 225.981781,401.070336 223.882812,396.398438 C221.783844,391.726539 220.734375,386.750026 220.734375,381.46875 Z" sketch:type="MSShapeGroup"></path>
        </g>
    </g>
</svg>