<?xml version="1.0" encoding="UTF-8" standalone="no"?>
<svg width="512px" height="512px" viewBox="0 0 512 512" version="1.1" xmlns="http://www.w3.org/2000/svg" xmlns:xlink="http://www.w3.org/1999/xlink" xmlns:sketch="http://www.bohemiancoding.com/sketch/ns">
    <!-- Generator: Sketch 3.0.4 (8054) - http://www.bohemiancoding.com/sketch -->
    <title>infoSolid</title>
    <desc>Created with Sketch.</desc>
    <defs></defs>
    <g id="Page-1" stroke="none" stroke-width="1" fill="none" fill-rule="evenodd" sketch:type="MSPage">
        <g id="infoSolid" sketch:type="MSArtboardGroup" fill="#0B0C0C">
            <path d="M256,512 C397.384903,512 512,397.384903 512,256 C512,114.615097 397.384903,0 256,0 C114.615097,0 0,114.615097 0,256 C0,397.384903 114.615097,512 256,512 Z M224.435279,311.505162 L224.435279,296.335747 C224.435279,285.407188 226.10716,275.539011 229.450973,266.730919 C232.794786,257.922827 236.9541,249.889642 241.929041,242.631122 C246.903982,235.372602 252.286624,228.685077 258.077129,222.568346 C263.867633,216.451616 269.250275,210.62042 274.225216,205.074584 C279.200157,199.528749 283.359471,194.064552 286.703284,188.681829 C290.047097,183.299106 291.718978,177.590243 291.718978,171.555069 C291.718978,166.98791 290.781093,162.869374 288.905296,159.199335 C287.029499,155.529297 284.501288,152.389423 281.320588,149.779618 C278.139888,147.169813 274.38835,145.212488 270.06586,143.907586 C265.743371,142.602683 261.053948,141.950242 255.997451,141.950242 C248.657374,141.950242 241.847516,142.888126 235.567673,144.763924 C229.28783,146.639721 223.456634,149.045599 218.073911,151.981629 C212.691189,154.91766 207.7571,158.261423 203.271498,162.013017 C198.785895,165.764612 194.830469,169.597706 191.4051,173.512413 L151.279549,123.110806 C157.640948,116.260068 164.817804,109.857986 172.810332,103.904368 C180.80286,97.9507508 189.529265,92.7719967 198.989808,88.3679507 C208.450351,83.9639048 218.563194,80.5385871 229.328639,78.0918949 C240.094085,75.6452027 251.51181,74.421875 263.582158,74.421875 C279.567214,74.421875 294.165592,76.8277529 307.37773,81.6395809 C320.589867,86.4514088 331.926038,92.9758235 341.386581,101.21302 C350.847124,109.450218 358.187091,118.992174 363.406701,129.839176 C368.626311,140.686178 371.236076,152.144681 371.236076,164.215029 C371.236076,173.023121 370.216637,181.137862 368.177726,188.559495 C366.138816,195.981128 363.162052,203.035651 359.247345,209.723276 C355.332637,216.410902 350.520881,222.976094 344.811933,229.41905 C339.102984,235.862006 332.57857,242.508753 325.238493,249.359492 C320.99756,253.274199 316.960579,257.188848 313.127427,261.103555 C309.294276,265.018263 305.950514,269.218355 303.09604,273.703957 C300.241565,278.189559 297.95802,283.042093 296.245336,288.261703 C294.532651,293.481313 293.676322,299.353286 293.676322,305.877799 L293.676322,311.505162 L224.435279,311.505162 Z M212.446547,388.575581 C212.446547,382.214181 213.710653,376.179098 216.238901,370.470149 C218.76715,364.761201 222.15169,359.786335 226.392623,355.545402 C230.633556,351.304468 235.6492,347.919928 241.439705,345.39168 C247.23021,342.863431 253.306071,341.599326 259.667471,341.599326 C266.02887,341.599326 272.023176,342.863431 277.650568,345.39168 C283.27796,347.919928 288.212049,351.304468 292.452982,355.545402 C296.693915,359.786335 300.037678,364.761201 302.48437,370.470149 C304.931062,376.179098 306.15439,382.214181 306.15439,388.575581 C306.15439,394.936981 304.931062,400.931287 302.48437,406.558679 C300.037678,412.186071 296.693915,417.120159 292.452982,421.361092 C288.212049,425.602025 283.27796,428.945788 277.650568,431.39248 C272.023176,433.839172 266.02887,435.0625 259.667471,435.0625 C253.306071,435.0625 247.23021,433.839172 241.439705,431.39248 C235.6492,428.945788 230.633556,425.602025 226.392623,421.361092 C222.15169,417.120159 218.76715,412.186071 216.238901,406.558679 C213.710653,400.931287 212.446547,394.936981 212.446547,388.575581 Z" id="info" sketch:type="MSShapeGroup"></path>
        </g>
    </g>
</svg>