<?xml version="1.0" encoding="UTF-8" standalone="no"?>
<svg width="512px" height="512px" viewBox="0 0 512 512" version="1.1" xmlns="http://www.w3.org/2000/svg" xmlns:xlink="http://www.w3.org/1999/xlink" xmlns:sketch="http://www.bohemiancoding.com/sketch/ns">
    <!-- Generator: Sketch 3.2 (9961) - http://www.bohemiancoding.com/sketch -->
    <title>info</title>
    <desc>Created with Sketch.</desc>
    <defs></defs>
    <g id="Page-1" stroke="none" stroke-width="1" fill="none" fill-rule="evenodd" sketch:type="MSPage">
        <g id="info" sketch:type="MSArtboardGroup" fill="#0B0C0C">
            <g id="info-icon" sketch:type="MSLayerGroup">
                <path d="M256,0.11 C114.615,0.11 0,114.725 0,256.11 C0,397.495 114.615,512.11 256,512.11 C397.385,512.11 512,397.495 512,256.11 C512,114.725 397.385,0.11 256,0.11 L256,0.11 Z M256,448.11 C149.961,448.11 64,362.149 64,256.11 C64,150.071 149.961,64.11 256,64.11 C362.039,64.11 448,150.071 448,256.11 C448,362.149 362.039,448.11 256,448.11 L256,448.11 Z" id="Fill-1" sketch:type="MSShapeGroup"></path>
                <path d="M327.781,143.008 C319.927,136.17 310.516,130.753 299.547,126.758 C288.578,122.764 276.458,120.766 263.187,120.766 C253.167,120.766 243.688,121.782 234.75,123.813 C225.812,125.844 217.417,128.688 209.562,132.344 C201.708,136.001 194.464,140.3 187.828,145.243 C181.193,150.186 175.234,155.5 169.953,161.188 L203.266,203.032 C206.109,199.782 209.393,196.599 213.117,193.485 C216.841,190.37 220.937,187.594 225.406,185.157 C229.875,182.719 234.716,180.722 239.93,179.165 C245.143,177.607 250.797,176.829 256.891,176.829 C261.089,176.829 264.982,177.37 268.57,178.454 C272.159,179.537 275.273,181.162 277.914,183.329 C280.555,185.495 282.654,188.102 284.211,191.149 C285.768,194.196 286.547,197.615 286.547,201.407 C286.547,206.417 285.159,211.157 282.383,215.626 C279.607,220.094 276.154,224.631 272.023,229.235 C267.893,233.839 263.424,238.68 258.617,243.758 C253.81,248.836 249.341,254.389 245.211,260.415 C241.081,266.441 237.628,273.11 234.852,280.422 C232.076,287.735 230.688,295.928 230.688,305.001 L230.688,317.594 L288.172,317.594 L288.172,312.922 C288.172,307.506 288.883,302.631 290.305,298.297 C291.727,293.964 293.622,289.935 295.992,286.211 C298.362,282.487 301.138,279.001 304.32,275.751 C307.503,272.5 310.854,269.251 314.375,266.001 C320.469,260.313 325.885,254.795 330.625,249.446 C335.365,244.097 339.359,238.647 342.609,233.094 C345.859,227.542 348.331,221.685 350.023,215.524 C351.716,209.362 352.562,202.626 352.562,195.313 C352.562,185.292 350.396,175.779 346.062,166.774 C341.729,157.769 335.635,149.847 327.781,143.008" id="Fill-2" sketch:type="MSShapeGroup"></path>
                <path d="M287.156,354.157 C283.635,350.636 279.539,347.826 274.867,345.727 C270.195,343.628 265.219,342.579 259.938,342.579 C254.656,342.579 249.612,343.628 244.805,345.727 C239.997,347.826 235.833,350.636 232.312,354.157 C228.792,357.678 225.982,361.808 223.883,366.547 C221.784,371.287 220.734,376.297 220.734,381.579 C220.734,386.86 221.784,391.836 223.883,396.508 C225.982,401.18 228.792,405.277 232.312,408.798 C235.833,412.318 239.997,415.094 244.805,417.126 C249.612,419.157 254.656,420.172 259.938,420.172 C265.219,420.172 270.195,419.157 274.867,417.126 C279.539,415.094 283.635,412.318 287.156,408.798 C290.677,405.277 293.453,401.18 295.484,396.508 C297.516,391.836 298.531,386.86 298.531,381.579 C298.531,376.297 297.516,371.287 295.484,366.547 C293.453,361.808 290.677,357.678 287.156,354.157" id="Fill-3" sketch:type="MSShapeGroup"></path>
            </g>
        </g>
    </g>
</svg>