<?xml version="1.0" encoding="UTF-8" standalone="no"?>
<svg width="16px" height="16px" viewBox="0 0 16 16" version="1.1" xmlns="http://www.w3.org/2000/svg" xmlns:xlink="http://www.w3.org/1999/xlink" xmlns:sketch="http://www.bohemiancoding.com/sketch/ns">
    <!-- Generator: Sketch 3.0.3 (7891) - http://www.bohemiancoding.com/sketch -->
    <title>Info_icon</title>
    <desc>Created with Sketch.</desc>
    <defs></defs>
    <g id="Page-1" stroke="none" stroke-width="1" fill="none" fill-rule="evenodd" sketch:type="MSPage">
        <g id="Info_icon" sketch:type="MSArtboardGroup" fill="#6F777B">
            <path d="M8,16 C12.4182782,16 16,12.4182782 16,8 C16,3.58172178 12.4182782,0 8,0 C3.58172178,0 0,3.58172178 0,8 C0,12.4182782 3.58172178,16 8,16 Z M8,14 C11.3137087,14 14,11.3137087 14,8 C14,4.68629134 11.3137087,2 8,2 C4.68629134,2 2,4.68629134 2,8 C2,11.3137087 4.68629134,14 8,14 Z" id="?" sketch:type="MSShapeGroup"></path>
            <path d="M7.20898438,9.92138672 L7.20898438,9.52783203 C7.20898438,9.24430197 7.25235959,8.98828239 7.33911133,8.75976562 C7.42586306,8.53124886 7.53377214,8.32283623 7.6628418,8.13452148 C7.79191145,7.94620674 7.93155849,7.77270587 8.08178711,7.61401367 C8.23201573,7.45532147 8.37166277,7.30403718 8.50073242,7.16015625 C8.62980208,7.01627532 8.73771115,6.87451242 8.82446289,6.73486328 C8.91121463,6.59521415 8.95458984,6.44710365 8.95458984,6.29052734 C8.95458984,6.17203717 8.9302574,6.06518602 8.8815918,5.9699707 C8.83292619,5.87475538 8.7673344,5.79329461 8.68481445,5.72558594 C8.60229451,5.65787727 8.50496475,5.60709652 8.39282227,5.57324219 C8.28067978,5.53938785 8.15901758,5.52246094 8.02783203,5.52246094 C7.83740139,5.52246094 7.66072673,5.54679338 7.49780273,5.59545898 C7.33487874,5.64412459 7.18359445,5.70654259 7.04394531,5.78271484 C6.90429618,5.8588871 6.77628639,5.94563753 6.65991211,6.04296875 C6.54353783,6.14029997 6.44091841,6.23974559 6.35205078,6.34130859 L5.31103516,5.03369141 C5.47607504,4.85595614 5.6622711,4.6898608 5.86962891,4.53540039 C6.07698671,4.38093998 6.30338419,4.2465826 6.54882812,4.13232422 C6.79427206,4.01806583 7.05663923,3.92919954 7.3359375,3.86572266 C7.61523577,3.80224578 7.91145677,3.77050781 8.22460938,3.77050781 C8.63932499,3.77050781 9.01806469,3.83292581 9.36083984,3.95776367 C9.703615,4.08260154 9.99772013,4.25187068 10.2431641,4.46557617 C10.488608,4.67928167 10.6790358,4.92683779 10.8144531,5.20825195 C10.9498705,5.48966612 11.0175781,5.78694505 11.0175781,6.10009766 C11.0175781,6.32861442 10.9911298,6.53914292 10.9382324,6.73168945 C10.885335,6.92423599 10.808106,7.10725825 10.706543,7.28076172 C10.60498,7.45426519 10.480144,7.62459226 10.3320312,7.79174805 C10.1839185,7.95890383 10.0146494,8.13134677 9.82421875,8.30908203 C9.71419216,8.41064504 9.60945688,8.51220652 9.51000977,8.61376953 C9.41056265,8.71533254 9.32381222,8.82429955 9.24975586,8.94067383 C9.1756995,9.05704811 9.1164553,9.18294203 9.07202148,9.31835938 C9.02758767,9.45377672 9.00537109,9.60611895 9.00537109,9.77539062 L9.00537109,9.92138672 L7.20898438,9.92138672 Z M6.89794922,11.9208984 C6.89794922,11.7558585 6.93074511,11.5992846 6.99633789,11.4511719 C7.06193067,11.3030592 7.14973903,11.1739914 7.25976562,11.0639648 C7.36979222,10.9539383 7.49991787,10.8661299 7.65014648,10.8005371 C7.8003751,10.7349443 7.95800699,10.7021484 8.12304688,10.7021484 C8.28808676,10.7021484 8.44360279,10.7349443 8.58959961,10.8005371 C8.73559643,10.8661299 8.86360622,10.9539383 8.97363281,11.0639648 C9.0836594,11.1739914 9.17040984,11.3030592 9.23388672,11.4511719 C9.2973636,11.5992846 9.32910156,11.7558585 9.32910156,11.9208984 C9.32910156,12.0859383 9.2973636,12.2414543 9.23388672,12.3874512 C9.17040984,12.533448 9.0836594,12.6614578 8.97363281,12.7714844 C8.86360622,12.881511 8.73559643,12.9682614 8.58959961,13.0317383 C8.44360279,13.0952152 8.28808676,13.1269531 8.12304688,13.1269531 C7.95800699,13.1269531 7.8003751,13.0952152 7.65014648,13.0317383 C7.49991787,12.9682614 7.36979222,12.881511 7.25976562,12.7714844 C7.14973903,12.6614578 7.06193067,12.533448 6.99633789,12.3874512 C6.93074511,12.2414543 6.89794922,12.0859383 6.89794922,11.9208984 L6.89794922,11.9208984 Z" id="?" sketch:type="MSShapeGroup"></path>
        </g>
    </g>
</svg>