<?xml version="1.0" encoding="UTF-8" standalone="no"?>
<svg width="16px" height="16px" viewBox="0 0 16 16" version="1.1" xmlns="http://www.w3.org/2000/svg" xmlns:xlink="http://www.w3.org/1999/xlink" xmlns:sketch="http://www.bohemiancoding.com/sketch/ns">
    <!-- Generator: Sketch 3.0.3 (7891) - http://www.bohemiancoding.com/sketch -->
    <title>Interpreter_icon</title>
    <desc>Created with Sketch.</desc>
    <defs></defs>
    <g id="Page-1" stroke="none" stroke-width="1" fill="none" fill-rule="evenodd" sketch:type="MSPage">
        <g id="Interpreter_icon" sketch:type="MSArtboardGroup" fill="#6F777B">
            <path d="M3,13 L1.99406028,13 C0.894513756,13 0,12.1033337 0,10.9972399 L0,2.00276013 C0,0.893542647 0.892771196,0 1.99406028,0 L14.0059397,0 C15.1054862,0 16,0.896666251 16,2.00276013 L16,10.9972399 C16,12.1064574 15.1072288,13 14.0059397,13 L8.60260678,13 C7.51553829,13.7775214 6.02581617,14.8421041 5.00832222,15.5654841 C3.23205566,16.8283081 3,15 3,15 L3,13 L3,13 Z M5,11 L5,13.2886353 L8,11 L5,11 Z M3.00247329,2 C2.44882258,2 2,2.4463114 2,2.99754465 L2,10.0024554 C2,10.553384 2.45576096,11 3.00247329,11 L12.9975267,11 C13.5511774,11 14,10.5536886 14,10.0024554 L14,2.99754465 C14,2.44661595 13.544239,2 12.9975267,2 L3.00247329,2 Z M9.57815731,8.56141856 L5.25431289,8.56141856 L4.48631211,10.6035156 L3.05015064,10.6035156 L6.46775413,2.09082031 L8.41847612,2.09082031 L11.8591196,10.6035156 L10.3691981,10.6035156 L9.57815731,8.56141856 Z M6.0091391,7.67096926 L8.84076788,7.67096926 L7.46947595,3.02876024 L7.37449469,3.02876024 L6.0091391,7.67096926 Z" id="interpreter_icon" sketch:type="MSShapeGroup"></path>
        </g>
    </g>
</svg>