<?xml version="1.0" encoding="UTF-8" standalone="no"?>
<svg width="512px" height="512px" viewBox="0 0 512 512" version="1.1" xmlns="http://www.w3.org/2000/svg" xmlns:xlink="http://www.w3.org/1999/xlink" xmlns:sketch="http://www.bohemiancoding.com/sketch/ns">
    <!-- Generator: Sketch 3.0.4 (8054) - http://www.bohemiancoding.com/sketch -->
    <title>language</title>
    <desc>Created with Sketch.</desc>
    <defs></defs>
    <g id="Page-1" stroke="none" stroke-width="1" fill="none" fill-rule="evenodd" sketch:type="MSPage">
        <g id="language" sketch:type="MSArtboardGroup" fill="#0B0C0C">
            <g id="icon-Language" sketch:type="MSLayerGroup">
                <path d="M96,416 L2.0096451,416 C0.900626183,416 0,415.10707 0,414.005585 L0,1.99441517 C0,0.899959085 0.899748761,0 2.0096451,0 L509.990355,0 C511.099374,0 512,0.892930087 512,1.99441517 L512,414.005585 C512,415.100041 511.100251,416 509.990355,416 L275.283417,416 C240.497225,440.880685 192.826117,474.94733 160.266311,498.095492 C103.425781,538.505859 96,480 96,480 L96,416 L96,416 Z M160,352 L160,425.236328 L256,352 L160,352 Z M65.0017095,64 C64.4484806,64 64,64.4480781 64,65.0003436 L64,350.999656 C64,351.552131 64.4555384,352 65.0017095,352 L446.998291,352 C447.551519,352 448,351.551922 448,350.999656 L448,65.0003436 C448,64.4478691 447.544462,64 446.998291,64 L65.0017095,64 Z M306.501034,273.965394 L168.138012,273.965394 L143.561987,339.3125 L97.6048204,339.3125 L206.968132,66.90625 L269.391236,66.90625 L379.491828,339.3125 L331.81434,339.3125 L306.501034,273.965394 Z M192.292451,245.471016 L282.904572,245.471016 L239.02323,96.9203278 L235.98383,96.9203278 L192.292451,245.471016 Z" id="interpreter_icon-2" sketch:type="MSShapeGroup"></path>
            </g>
        </g>
    </g>
</svg>