<?xml version="1.0" encoding="UTF-8" standalone="no"?>
<svg width="512px" height="512px" viewBox="0 0 512 512" version="1.1" xmlns="http://www.w3.org/2000/svg" xmlns:xlink="http://www.w3.org/1999/xlink" xmlns:sketch="http://www.bohemiancoding.com/sketch/ns">
    <!-- Generator: Sketch 3.2.2 (9983) - http://www.bohemiancoding.com/sketch -->
    <title>list</title>
    <desc>Created with Sketch.</desc>
    <defs></defs>
    <g id="Page-1" stroke="none" stroke-width="1" fill="none" fill-rule="evenodd" sketch:type="MSPage">
        <g id="list" sketch:type="MSArtboardGroup" fill="#0B0C0C">
            <path d="M479.996,0.11 L32.004,0.11 C14.329,0.11 0,14.439 0,32.114 L0,480.106 C0,497.781 14.329,512.11 32.004,512.11 L479.996,512.11 C497.671,512.11 512,497.781 512,480.106 L512,32.114 C512,14.438 497.671,0.11 479.996,0.11 L479.996,0.11 Z M448,416.113 C448,433.786 433.674,448.11 416.003,448.11 L95.997,448.11 C78.324,448.11 64,433.784 64,416.113 L64,96.107 C64,78.433 78.326,64.11 95.997,64.11 L416.003,64.11 C433.677,64.11 448,78.435 448,96.107 L448,416.113 L448,416.113 Z M128,320.11 L384,320.11 L384,384.11 L128,384.11 L128,320.11 Z M129,224.11 L385,224.11 L385,288.11 L129,288.11 L129,224.11 Z M128,128.11 L384,128.11 L384,192.11 L128,192.11 L128,128.11 Z" id="list-icon" sketch:type="MSShapeGroup"></path>
        </g>
    </g>
</svg>