<?xml version="1.0" encoding="UTF-8" standalone="no"?>
<svg width="512px" height="512px" viewBox="0 0 512 512" version="1.1" xmlns="http://www.w3.org/2000/svg" xmlns:xlink="http://www.w3.org/1999/xlink" xmlns:sketch="http://www.bohemiancoding.com/sketch/ns">
    <!-- Generator: Sketch 3.0.4 (8054) - http://www.bohemiancoding.com/sketch -->
    <title>location</title>
    <desc>Created with Sketch.</desc>
    <defs></defs>
    <g id="Page-1" stroke="none" stroke-width="1" fill="none" fill-rule="evenodd" sketch:type="MSPage">
        <g id="location" sketch:type="MSArtboardGroup" fill="#0B0C0C">
            <g id="icon-Location" sketch:type="MSLayerGroup" transform="translate(64.000000, 0.000000)">
                <path d="M191.970462,507.221333 C191.970462,507.221333 0,313.557333 0,183.694222 L0,184.860444 C0,82.7448889 85.9273846,0 191.970462,0 C298.072615,0 384,82.7448889 384,184.860444 L384,183.694222 C384,313.557333 191.970462,507.221333 191.970462,507.221333 Z M329.826462,187.221336 C329.826462,259.214225 269.213538,317.55378 194.422154,317.55378 C119.704615,317.55378 59.0769231,259.214225 59.0769231,187.221336 C59.0769231,115.200003 119.704615,56.8888915 194.422154,56.8888915 C269.213538,56.8746693 329.826462,115.18578 329.826462,187.221336 Z" id="Shape-3" sketch:type="MSShapeGroup"></path>
            </g>
        </g>
    </g>
</svg>