<?xml version="1.0" encoding="UTF-8" standalone="no"?>
<svg width="512px" height="512px" viewBox="0 0 512 512" version="1.1" xmlns="http://www.w3.org/2000/svg" xmlns:xlink="http://www.w3.org/1999/xlink" xmlns:sketch="http://www.bohemiancoding.com/sketch/ns">
    <!-- Generator: Sketch 3.0.4 (8054) - http://www.bohemiancoding.com/sketch -->
    <title>mediaCode</title>
    <desc>Created with Sketch.</desc>
    <defs></defs>
    <g id="Page-1" stroke="none" stroke-width="1" fill="none" fill-rule="evenodd" sketch:type="MSPage">
        <g id="mediaCode" sketch:type="MSArtboardGroup" fill="#0B0C0C">
            <path d="M288,448 L479.996316,448 C497.670749,448 512,462.326888 512,480 C512,497.676998 497.671463,512 479.996316,512 L32.0036842,512 C14.3292507,512 0,497.673112 0,480 C0,462.323002 14.3285375,448 32.0036842,448 L192,448 L192,384 L288,384 L288,448 Z M32.0036842,0 C14.3285375,0 0,14.3235467 0,31.9969832 L0,352.003017 C0,369.674463 14.3292507,384 32.0036842,384 L479.996316,384 C497.671463,384 512,369.676453 512,352.003017 L512,31.9969832 C512,14.3255373 497.670749,0 479.996316,0 L32.0036842,0 Z M65.0017095,64 C64.4484806,64 64,64.4422858 64,64.9986877 L64,287.001312 C64,287.552872 64.4555384,288 65.0017095,288 L446.998291,288 C447.551519,288 448,287.557714 448,287.001312 L448,64.9986877 C448,64.4471277 447.544462,64 446.998291,64 L65.0017095,64 Z" id="icon-adaptation" sketch:type="MSShapeGroup"></path>
        </g>
    </g>
</svg>