<?xml version="1.0" encoding="UTF-8" standalone="no"?>
<svg width="512px" height="512px" viewBox="0 0 512 512" version="1.1" xmlns="http://www.w3.org/2000/svg" xmlns:xlink="http://www.w3.org/1999/xlink" xmlns:sketch="http://www.bohemiancoding.com/sketch/ns">
    <!-- Generator: Sketch 3.2 (9961) - http://www.bohemiancoding.com/sketch -->
    <title>ni</title>
    <desc>Created with Sketch.</desc>
    <defs></defs>
    <g id="Page-1" stroke="none" stroke-width="1" fill="none" fill-rule="evenodd" sketch:type="MSPage">
        <g id="ni" sketch:type="MSArtboardGroup" fill="#0B0C0C">
            <path d="M256,0 C114.615,0 0,114.615 0,256 C0,397.385 114.615,512 256,512 C397.385,512 512,397.385 512,256 C512,114.615 397.385,0 256,0 L256,0 Z M298.48,374.62 L258.88,374.62 L154.12,239.62 C143.68,226.3 135.4,214.42 127.48,203.26 L126.76,203.26 C127.48,212.98 127.48,226.66 127.48,239.98 L127.48,374.62 L84.28,374.62 L84.28,137.38 L127.12,137.38 L228.28,266.98 C239.08,281.02 247.72,292.9 254.92,303.7 L255.64,303.7 C254.92,291.1 254.92,276.7 254.92,263.74 L254.92,137.38 L298.48,137.38 L298.48,374.62 L298.48,374.62 Z M355.72,137.38 L398.92,137.38 L398.92,374.62 L355.72,374.62 L355.72,137.38 Z" id="Imported-Layers" sketch:type="MSShapeGroup"></path>
        </g>
    </g>
</svg>