<?xml version="1.0" encoding="UTF-8" standalone="no"?>
<svg width="512px" height="512px" viewBox="0 0 512 512" version="1.1" xmlns="http://www.w3.org/2000/svg" xmlns:xlink="http://www.w3.org/1999/xlink" xmlns:sketch="http://www.bohemiancoding.com/sketch/ns">
    <!-- Generator: Sketch 3.0.4 (8054) - http://www.bohemiancoding.com/sketch -->
    <title>ni</title>
    <desc>Created with Sketch.</desc>
    <defs></defs>
    <g id="Page-1" stroke="none" stroke-width="1" fill="none" fill-rule="evenodd" sketch:type="MSPage">
        <g id="ni" sketch:type="MSArtboardGroup" fill="#0B0C0C">
            <path d="M256,512 C397.384903,512 512,397.384903 512,256 C512,114.615097 397.384903,0 256,0 C114.615097,0 0,114.615097 0,256 C0,397.384903 114.615097,512 256,512 Z M84.28,374.62 L127.48,374.62 L127.48,239.98 C127.48,226.66 127.48,212.98 126.76,203.26 L127.48,203.26 C135.4,214.42 143.68,226.3 154.12,239.62 L258.88,374.62 L298.48,374.62 L298.48,137.38 L254.92,137.38 L254.92,263.74 C254.92,276.7 254.92,291.1 255.64,303.7 L254.92,303.7 C247.72,292.9 239.08,281.02 228.28,266.98 L127.12,137.38 L84.28,137.38 L84.28,374.62 Z M355.72,374.62 L398.92,374.62 L398.92,137.38 L355.72,137.38 L355.72,374.62 Z" id="?-2" sketch:type="MSShapeGroup"></path>
        </g>
    </g>
</svg>