<?xml version="1.0" encoding="UTF-8" standalone="no"?>
<svg width="512px" height="512px" viewBox="0 0 512 512" version="1.1" xmlns="http://www.w3.org/2000/svg" xmlns:xlink="http://www.w3.org/1999/xlink" xmlns:sketch="http://www.bohemiancoding.com/sketch/ns">
    <!-- Generator: Sketch 3.2.2 (9983) - http://www.bohemiancoding.com/sketch -->
    <title>novoicemail</title>
    <desc>Created with Sketch.</desc>
    <defs></defs>
    <g id="Page-1" stroke="none" stroke-width="1" fill="none" fill-rule="evenodd" sketch:type="MSPage">
        <g id="novoicemail" sketch:type="MSArtboardGroup" fill="#0B0C0C">
            <path d="M285.840746,448 L226.159254,448 L226.159246,448.000016 C234.996292,431.282269 240,412.225474 240,392 C240,325.72583 186.27417,272 120,272 C53.72583,272 0,325.72583 0,392 C0,456.599253 51.044568,509.276409 115,511.897722 L115,512 L392,512 C458.27417,512 512,458.27417 512,392 C512,325.72583 458.27417,272 392,272 C325.72583,272 272,325.72583 272,392 C272,412.225474 277.003708,431.282269 285.840754,448.000016 L285.840746,448 Z M336,392 C336,361.072054 361.072054,336 392,336 C422.927946,336 448,361.072054 448,392 C448,422.927946 422.927946,448 392,448 C361.072054,448 336,422.927946 336,392 Z M64,392 C64,361.072054 89.072054,336 120,336 C150.927946,336 176,361.072054 176,392 C176,422.927946 150.927946,448 120,448 C89.072054,448 64,422.927946 64,392 Z M512.041479,227.996641 L465.99664,274.041479 L374.97758,183.022419 L283.872201,274.127797 L238,228.255592 L329.105377,137.150216 L238.086317,46.1311563 L284.131156,0.0863177887 L375.150216,91.1053778 L466.255595,-1.42108547e-14 L512.127796,45.8722053 L421.022419,136.977581 L512.041479,227.996641 Z" sketch:type="MSShapeGroup"></path>
        </g>
    </g>
</svg>