<?xml version="1.0" encoding="UTF-8" standalone="no"?>
<svg width="512px" height="512px" viewBox="0 0 512 512" version="1.1" xmlns="http://www.w3.org/2000/svg" xmlns:xlink="http://www.w3.org/1999/xlink" xmlns:sketch="http://www.bohemiancoding.com/sketch/ns">
    <!-- Generator: Sketch 3.2 (9961) - http://www.bohemiancoding.com/sketch -->
    <title>print</title>
    <desc>Created with Sketch.</desc>
    <defs></defs>
    <g id="Page-1" stroke="none" stroke-width="1" fill="none" fill-rule="evenodd" sketch:type="MSPage">
        <g id="print" sketch:type="MSArtboardGroup" fill="#0B0C0C">
            <g id="Imported-Layers" sketch:type="MSLayerGroup">
                <path d="M479.996,225.11 L448,225.11 L448,0.11 L64,0.11 L64,225.11 L32.004,225.11 C14.329,225.11 0,239.441 0,257.101 L0,481.119 C0,498.787 14.329,513.11 32.004,513.11 L479.996,513.11 C497.671,513.11 512,498.779 512,481.119 L512,257.101 C512,239.433 497.671,225.11 479.996,225.11 L479.996,225.11 Z M128,65.11 L384,65.11 L384,225.11 L128,225.11 L128,65.11 Z M448,417.116 C448,434.788 433.674,449.11 416.003,449.11 L95.997,449.11 C78.324,449.11 64,434.786 64,417.116 L64,321.104 C64,303.432 78.326,289.11 95.997,289.11 L416.003,289.11 C433.677,289.11 448,303.434 448,321.104 L448,417.116 L448,417.116 Z" id="Fill-1" sketch:type="MSShapeGroup"></path>
                <path d="M128,337.11 L384,337.11 L384,401.11 L128,401.11 L128,337.11 Z" id="Fill-2" sketch:type="MSShapeGroup"></path>
            </g>
        </g>
    </g>
</svg>