<?xml version="1.0" encoding="UTF-8" standalone="no"?>
<svg width="16px" height="16px" viewBox="0 0 16 16" version="1.1" xmlns="http://www.w3.org/2000/svg" xmlns:xlink="http://www.w3.org/1999/xlink" xmlns:sketch="http://www.bohemiancoding.com/sketch/ns">
    <!-- Generator: Sketch 3.0.3 (7891) - http://www.bohemiancoding.com/sketch -->
    <title>Print_icon</title>
    <desc>Created with Sketch.</desc>
    <defs></defs>
    <g id="Page-1" stroke="none" stroke-width="1" fill="none" fill-rule="evenodd" sketch:type="MSPage">
        <g id="Print_icon" sketch:type="MSArtboardGroup" fill="#6F777B">
            <rect id="Rectangle-59" sketch:type="MSShapeGroup" x="4" y="10" width="8" height="2"></rect>
            <path d="M0,8.9973917 L0,14.0026083 C0,15.1057373 0.894513756,16 1.99406028,16 L14.0059397,16 C15.1072288,16 16,15.1041422 16,14.0026083 L16,8.9973917 C16,7.89426273 15.1054862,7 14.0059397,7 L1.99406028,7 C0.892771196,7 0,7.89585781 0,8.9973917 Z M14.0059397,9 C14.0010411,9 14,14.0026083 14,14.0026083 C14,14.0011166 1.99406028,14 1.99406028,14 C1.9989589,14 2,8.9973917 2,8.9973917 C2,8.99888337 14.0059397,9 14.0059397,9 Z" id="Rectangle-55" sketch:type="MSShapeGroup"></path>
            <path d="M2,1.9973917 L2,7.0026083 C2,8.10573727 2.90195036,9 4.0085302,9 L11.9914698,9 C13.1007504,9 14,8.10414219 14,7.0026083 L14,1.9973917 C14,0.894262725 13.0980496,0 11.9914698,0 L4.0085302,0 C2.8992496,0 2,0.895857811 2,1.9973917 Z M11.9914698,2 C11.9973078,2 12,7.0026083 12,7.0026083 C12,6.99787454 4.0085302,7 4.0085302,7 C4.00269216,7 4,1.9973917 4,1.9973917 C4,2.00212546 11.9914698,2 11.9914698,2 Z" id="Rectangle-55" sketch:type="MSShapeGroup"></path>
        </g>
    </g>
</svg>