<?xml version="1.0" encoding="UTF-8" standalone="no"?>
<svg width="512px" height="512px" viewBox="0 0 512 512" version="1.1" xmlns="http://www.w3.org/2000/svg" xmlns:xlink="http://www.w3.org/1999/xlink" xmlns:sketch="http://www.bohemiancoding.com/sketch/ns">
    <!-- Generator: Sketch 3.0.4 (8054) - http://www.bohemiancoding.com/sketch -->
    <title>print</title>
    <desc>Created with Sketch.</desc>
    <defs></defs>
    <g id="Page-1" stroke="none" stroke-width="1" fill="none" fill-rule="evenodd" sketch:type="MSPage">
        <g id="print" sketch:type="MSArtboardGroup" fill="#0B0C0C">
            <g id="icon-Print" sketch:type="MSLayerGroup">
                <rect id="Rectangle-60" sketch:type="MSShapeGroup" x="128" y="320" width="256" height="64"></rect>
                <path d="M0,287.916534 L0,448.083466 C0,483.383593 28.6244402,512 63.8099289,512 L448.190071,512 C483.431322,512 512,483.33255 512,448.083466 L512,287.916534 C512,252.616407 483.37556,224 448.190071,224 L63.8099289,224 C28.5686783,224 0,252.66745 0,287.916534 Z M448.190071,288 C448.033315,288 448,448.083466 448,448.083466 C448,448.035732 63.8099289,448 63.8099289,448 C63.9666847,448 64,287.916534 64,287.916534 C64,287.964268 448.190071,288 448.190071,288 Z" id="Rectangle-57" sketch:type="MSShapeGroup"></path>
                <path d="M64,63.9165344 L64,224.083466 C64,259.383593 92.8624115,288 128.272966,288 L383.727034,288 C419.224013,288 448,259.33255 448,224.083466 L448,63.9165344 C448,28.6164072 419.137589,0 383.727034,0 L128.272966,0 C92.7759872,0 64,28.66745 64,63.9165344 Z M383.727034,64 C383.913851,64 384,224.083466 384,224.083466 C384,223.931985 128.272966,224 128.272966,224 C128.086149,224 128,63.9165344 128,63.9165344 C128,64.0680149 383.727034,64 383.727034,64 Z" id="Rectangle-58" sketch:type="MSShapeGroup"></path>
            </g>
        </g>
    </g>
</svg>