<?xml version="1.0" encoding="UTF-8" standalone="no"?>
<svg width="512px" height="512px" viewBox="0 0 512 512" version="1.1" xmlns="http://www.w3.org/2000/svg" xmlns:xlink="http://www.w3.org/1999/xlink" xmlns:sketch="http://www.bohemiancoding.com/sketch/ns">
    <!-- Generator: Sketch 3.2 (9961) - http://www.bohemiancoding.com/sketch -->
    <title>script</title>
    <desc>Created with Sketch.</desc>
    <defs></defs>
    <g id="Page-1" stroke="none" stroke-width="1" fill="none" fill-rule="evenodd" sketch:type="MSPage">
        <g id="script" sketch:type="MSArtboardGroup" fill="#0B0C0C">
            <path d="M96,416 L32.0036842,416 C14.3292507,416 0,401.675323 0,384.004938 L0,31.9950625 C0,14.3196616 14.3285375,0 32.0036842,0 L479.996316,0 C497.670749,0 512,14.3246774 512,31.9950625 L512,384.004938 C512,401.680338 497.671463,416 479.996316,416 L275.170126,416 C240.393782,440.810751 192.790785,474.74267 160.266311,497.807308 C103.425781,538.115606 96,479.757522 96,479.757522 L96,416 Z M193.691083,319.838235 C201.907684,316.397042 208.977677,311.713265 214.901274,305.786765 C220.82487,299.860264 225.506352,292.882393 228.94586,284.852941 C232.385368,276.823489 234.105096,268.220634 234.105096,259.044118 C234.105096,249.867601 232.385368,241.360333 228.94586,233.522059 C225.506352,225.683784 220.82487,218.897088 214.901274,213.161765 C208.977677,207.426442 202.098765,202.93384 194.264331,199.683824 C186.429897,196.433807 177.926797,194.808824 168.754777,194.808824 L156.716561,194.808824 C161.684738,181.426404 170.856621,169.191232 184.232484,158.102941 C197.608347,147.01465 213.085899,138.411795 230.665605,132.294118 L238.117834,130 L226.079618,91 L213.468153,95.0147059 C192.066772,100.750029 173.531925,108.970535 157.863057,119.676471 C142.194189,130.382406 129.200689,142.235229 118.882166,155.235294 C108.563643,168.235359 100.920407,181.999927 95.9522293,196.529412 C90.9840516,211.058896 88.5,225.205814 88.5,238.970588 C88.5,251.588298 90.6018898,263.249946 94.8057325,273.955882 C99.0095752,284.661818 104.646461,293.74261 111.716561,301.198529 C118.78666,308.654449 127.194219,314.485273 136.93949,318.691176 C146.684762,322.89708 156.90759,325 167.60828,325 L193.691083,319.838235 Z M379.073248,319.838235 C387.28985,316.397042 394.359843,311.713265 400.283439,305.786765 C406.207036,299.860264 410.888518,292.882393 414.328025,284.852941 C417.767533,276.823489 419.487261,268.220634 419.487261,259.044118 C419.487261,249.867601 417.767533,241.360333 414.328025,233.522059 C410.888518,225.683784 406.207036,218.897088 400.283439,213.161765 C394.359843,207.426442 387.480931,202.93384 379.646497,199.683824 C371.812063,196.433807 363.308963,194.808824 354.136943,194.808824 L342.098726,194.808824 C347.066904,181.426404 356.238787,169.191232 369.61465,158.102941 C382.990513,147.01465 398.468065,138.411795 416.047771,132.294118 L423.5,130 L411.461783,91 L398.850318,95.0147059 C377.448938,100.750029 358.914091,108.970535 343.245223,119.676471 C327.576355,130.382406 314.582854,142.235229 304.264331,155.235294 C293.945808,168.235359 286.302573,181.999927 281.334395,196.529412 C276.366217,211.058896 273.882166,225.205814 273.882166,238.970588 C273.882166,251.588298 275.984055,263.249946 280.187898,273.955882 C284.391741,284.661818 290.028627,293.74261 297.098726,301.198529 C304.168825,308.654449 312.576384,314.485273 322.321656,318.691176 C332.066928,322.89708 342.289755,325 352.990446,325 L379.073248,319.838235 Z" id="Path-4" sketch:type="MSShapeGroup"></path>
        </g>
    </g>
</svg>