<?xml version="1.0" encoding="UTF-8" standalone="no"?>
<svg width="512px" height="512px" viewBox="0 0 512 512" version="1.1" xmlns="http://www.w3.org/2000/svg" xmlns:xlink="http://www.w3.org/1999/xlink" xmlns:sketch="http://www.bohemiancoding.com/sketch/ns">
    <!-- Generator: Sketch 3.1.1 (8761) - http://www.bohemiancoding.com/sketch -->
    <title>script</title>
    <desc>Created with Sketch.</desc>
    <defs></defs>
    <g id="Page-1" stroke="none" stroke-width="1" fill="none" fill-rule="evenodd" sketch:type="MSPage">
        <g id="script" sketch:type="MSArtboardGroup" fill="#0B0C0C">
            <path d="M96,416 L96,479.757522 C96,479.757522 103.425781,538.115606 160.266311,497.807308 C192.790785,474.74267 240.393782,440.810751 275.170126,416 L479.996316,416 C497.671463,416 512,401.680338 512,384.004938 L512,31.9950625 C512,14.3246774 497.670749,0 479.996316,0 L32.0036842,0 C14.3285375,0 0,14.3196616 0,31.9950625 L0,384.004938 C0,401.675323 14.3292507,416 32.0036842,416 L96,416 L96,416 Z M167.60828,325 C156.90759,325 146.684762,322.89708 136.93949,318.691176 C127.194219,314.485273 118.78666,308.654449 111.716561,301.198529 C104.646461,293.74261 99.0095752,284.661818 94.8057325,273.955882 C90.6018898,263.249946 88.5,251.588298 88.5,238.970588 C88.5,225.205814 90.9840516,211.058896 95.9522293,196.529412 C100.920407,181.999927 108.563643,168.235359 118.882166,155.235294 C129.200689,142.235229 142.194189,130.382406 157.863057,119.676471 C173.531925,108.970535 192.066772,100.750029 213.468153,95.0147059 L226.079618,91 L238.117834,130 L230.665605,132.294118 C213.085899,138.411795 197.608347,147.01465 184.232484,158.102941 C170.856621,169.191232 161.684738,181.426404 156.716561,194.808824 L168.754777,194.808824 C177.926797,194.808824 186.429897,196.433807 194.264331,199.683824 C202.098765,202.93384 208.977677,207.426442 214.901274,213.161765 C220.82487,218.897088 225.506352,225.683784 228.94586,233.522059 C232.385368,241.360333 234.105096,249.867601 234.105096,259.044118 C234.105096,268.220634 232.385368,276.823489 228.94586,284.852941 C225.506352,292.882393 220.82487,299.860264 214.901274,305.786765 C208.977677,311.713265 201.907684,316.397042 193.691083,319.838235 C185.474481,323.279429 176.780301,325 167.60828,325 Z M352.990446,325 C342.289755,325 332.066928,322.89708 322.321656,318.691176 C312.576384,314.485273 304.168825,308.654449 297.098726,301.198529 C290.028627,293.74261 284.391741,284.661818 280.187898,273.955882 C275.984055,263.249946 273.882166,251.588298 273.882166,238.970588 C273.882166,225.205814 276.366217,211.058896 281.334395,196.529412 C286.302573,181.999927 293.945808,168.235359 304.264331,155.235294 C314.582854,142.235229 327.576355,130.382406 343.245223,119.676471 C358.914091,108.970535 377.448938,100.750029 398.850318,95.0147059 L411.461783,91 L423.5,130 L416.047771,132.294118 C398.468065,138.411795 382.990513,147.01465 369.61465,158.102941 C356.238787,169.191232 347.066904,181.426404 342.098726,194.808824 L354.136943,194.808824 C363.308963,194.808824 371.812063,196.433807 379.646497,199.683824 C387.480931,202.93384 394.359843,207.426442 400.283439,213.161765 C406.207036,218.897088 410.888518,225.683784 414.328025,233.522059 C417.767533,241.360333 419.487261,249.867601 419.487261,259.044118 C419.487261,268.220634 417.767533,276.823489 414.328025,284.852941 C410.888518,292.882393 406.207036,299.860264 400.283439,305.786765 C394.359843,311.713265 387.28985,316.397042 379.073248,319.838235 C370.856647,323.279429 362.162466,325 352.990446,325 Z" id="Path-4" sketch:type="MSShapeGroup"></path>
        </g>
    </g>
</svg>