<?xml version="1.0" encoding="UTF-8" standalone="no"?>
<svg width="512px" height="512px" viewBox="0 0 512 512" version="1.1" xmlns="http://www.w3.org/2000/svg" xmlns:xlink="http://www.w3.org/1999/xlink" xmlns:sketch="http://www.bohemiancoding.com/sketch/ns">
    <!-- Generator: Sketch 3.0.4 (8054) - http://www.bohemiancoding.com/sketch -->
    <title>search</title>
    <desc>Created with Sketch.</desc>
    <defs></defs>
    <g id="Page-1" stroke="none" stroke-width="1" fill="none" fill-rule="evenodd" sketch:type="MSPage">
        <g id="search" sketch:type="MSArtboardGroup" fill="#0B0C0C">
            <g id="icon-Search" sketch:type="MSLayerGroup">
                <path d="M204.8,409.6 C317.907917,409.6 409.6,317.907917 409.6,204.8 C409.6,91.6920832 317.907917,0 204.8,0 C91.6920832,0 0,91.6920832 0,204.8 C0,317.907917 91.6920832,409.6 204.8,409.6 Z M204.8,341.333333 C280.205278,341.333333 341.333333,280.205278 341.333333,204.8 C341.333333,129.394722 280.205278,68.2666667 204.8,68.2666667 C129.394722,68.2666667 68.2666667,129.394722 68.2666667,204.8 C68.2666667,280.205278 129.394722,341.333333 204.8,341.333333 Z" id="Oval-12" sketch:type="MSShapeGroup"></path>
                <rect id="Rectangle-54" sketch:type="MSShapeGroup" transform="translate(392.533333, 392.533333) rotate(-45.000000) translate(-392.533333, -392.533333) " x="341.333333" y="273.066667" width="102.4" height="238.933333"></rect>
            </g>
        </g>
    </g>
</svg>