<?xml version="1.0" encoding="UTF-8" standalone="no"?>
<svg width="16px" height="16px" viewBox="0 0 16 16" version="1.1" xmlns="http://www.w3.org/2000/svg" xmlns:xlink="http://www.w3.org/1999/xlink" xmlns:sketch="http://www.bohemiancoding.com/sketch/ns">
    <!-- Generator: Sketch 3.0.4 (8053) - http://www.bohemiancoding.com/sketch -->
    <title>icon-Search</title>
    <desc>Created with Sketch.</desc>
    <defs></defs>
    <g id="Page-1" stroke="none" stroke-width="1" fill="none" fill-rule="evenodd" sketch:type="MSPage">
        <g id="icon-Search" sketch:type="MSArtboardGroup" fill="#0B0C0C">
            <path d="M7,13 C10.3137085,13 13,10.3137085 13,7 C13,3.6862915 10.3137085,1 7,1 C3.6862915,1 1,3.6862915 1,7 C1,10.3137085 3.6862915,13 7,13 Z M7,11 C9.209139,11 11,9.209139 11,7 C11,4.790861 9.209139,3 7,3 C4.790861,3 3,4.790861 3,7 C3,9.209139 4.790861,11 7,11 Z" id="Oval-9" sketch:type="MSShapeGroup"></path>
            <rect id="Rectangle-53" sketch:type="MSShapeGroup" transform="translate(12.500000, 12.500000) rotate(-45.000000) translate(-12.500000, -12.500000) " x="11" y="9" width="3" height="7"></rect>
        </g>
    </g>
</svg>