<?xml version="1.0" encoding="UTF-8" standalone="no"?>
<svg width="512px" height="512px" viewBox="0 0 512 512" version="1.1" xmlns="http://www.w3.org/2000/svg" xmlns:xlink="http://www.w3.org/1999/xlink" xmlns:sketch="http://www.bohemiancoding.com/sketch/ns">
    <!-- Generator: Sketch 3.0.4 (8054) - http://www.bohemiancoding.com/sketch -->
    <title>sms</title>
    <desc>Created with Sketch.</desc>
    <defs></defs>
    <g id="Page-1" stroke="none" stroke-width="1" fill="none" fill-rule="evenodd" sketch:type="MSPage">
        <g id="sms" sketch:type="MSArtboardGroup" fill="#0B0C0C">
            <g id="icon-SMS" sketch:type="MSLayerGroup" transform="translate(0.000000, 64.000000)">
                <path d="M2.0096451,0 C0.899748761,0 0,0.891091581 0,1.99719584 L0,382.002804 C0,383.105825 0.900626183,384 2.0096451,384 L509.990355,384 C511.100251,384 512,383.108908 512,382.002804 L512,1.99719584 C512,0.894175037 511.099374,0 509.990355,0 L2.0096451,0 Z M65.0017095,64 C64.4484806,64 64,64.4503131 64,65.0048226 L64,318.995177 C64,319.550126 64.4555384,320 65.0017095,320 L446.998291,320 C447.551519,320 448,319.549687 448,318.995177 L448,65.0048226 C448,64.4498744 447.544462,64 446.998291,64 L65.0017095,64 Z" id="Rectangle-77" sketch:type="MSShapeGroup"></path>
                <rect id="Rectangle-59" sketch:type="MSShapeGroup" x="192" y="96" width="64" height="192"></rect>
                <rect id="Rectangle-61" sketch:type="MSShapeGroup" transform="translate(352.000000, 128.000000) rotate(-90.000000) translate(-352.000000, -128.000000) " x="320" y="64" width="64" height="128"></rect>
                <rect id="Rectangle-62" sketch:type="MSShapeGroup" transform="translate(352.000000, 224.000000) rotate(-90.000000) translate(-352.000000, -224.000000) " x="320" y="160" width="64" height="128"></rect>
            </g>
        </g>
    </g>
</svg>