<?xml version="1.0" encoding="UTF-8" standalone="no"?>
<svg width="512px" height="512px" viewBox="0 0 512 512" version="1.1" xmlns="http://www.w3.org/2000/svg" xmlns:xlink="http://www.w3.org/1999/xlink" xmlns:sketch="http://www.bohemiancoding.com/sketch/ns">
    <!-- Generator: Sketch 3.0.4 (8054) - http://www.bohemiancoding.com/sketch -->
    <title>sms</title>
    <desc>Created with Sketch.</desc>
    <defs></defs>
    <g id="Page-1" stroke="none" stroke-width="1" fill="none" fill-rule="evenodd" sketch:type="MSPage">
        <g id="sms" sketch:type="MSArtboardGroup" fill="#0B0C0C">
            <path d="M32.0036842,64 C14.3285375,64 0,78.3235467 0,95.9969832 L0,416.003017 C0,433.674463 14.3292507,448 32.0036842,448 L479.996316,448 C497.671463,448 512,433.676453 512,416.003017 L512,95.9969832 C512,78.3255373 497.670749,64 479.996316,64 L32.0036842,64 Z M95.9969832,128 C78.3255373,128 64,142.335281 64,160.001768 L64,351.998232 C64,369.67232 78.3235467,384 95.9969832,384 L416.003017,384 C433.674463,384 448,369.664719 448,351.998232 L448,160.001768 C448,142.32768 433.676453,128 416.003017,128 L95.9969832,128 Z M192,160 L192,352 L256,352 L256,160 L192,160 Z M288,224 L416,224 L416,160 L288,160 L288,224 Z M288,320 L416,320 L416,256 L288,256 L288,320 Z" sketch:type="MSShapeGroup"></path>
        </g>
    </g>
</svg>