<?xml version="1.0" encoding="UTF-8" standalone="no"?>
<svg width="512px" height="512px" viewBox="0 0 512 512" version="1.1" xmlns="http://www.w3.org/2000/svg" xmlns:xlink="http://www.w3.org/1999/xlink" xmlns:sketch="http://www.bohemiancoding.com/sketch/ns">
    <!-- Generator: Sketch 3.2 (9961) - http://www.bohemiancoding.com/sketch -->
    <title>solidCross</title>
    <desc>Created with Sketch.</desc>
    <defs></defs>
    <g id="Page-1" stroke="none" stroke-width="1" fill="none" fill-rule="evenodd" sketch:type="MSPage">
        <g id="solidCross" sketch:type="MSArtboardGroup" fill="#0B0C0C">
            <path d="M256,512 C397.384896,512 512,397.384896 512,256 C512,114.615104 397.384896,0 256,0 C114.615104,0 0,114.615104 0,256 C0,397.384896 114.615104,512 256,512 Z M301.958521,255.913683 L392.977581,346.932742 L416,369.955161 L369.955161,416 L346.932742,392.977581 L255.913682,301.958521 L164.808303,393.063899 L141.872201,416 L96,370.127795 L118.936102,347.191693 L210.041479,256.086317 L119.022419,165.067258 L96,142.044839 L142.044839,96 L165.067258,119.022419 L256.086318,210.041479 L347.191697,118.936101 L370.127799,96 L416,141.872205 L393.063898,164.808307 L301.958521,255.913683 L301.958521,255.913683 Z" sketch:type="MSShapeGroup"></path>
        </g>
    </g>
</svg>