<?xml version="1.0" encoding="UTF-8" standalone="no"?>
<svg width="512px" height="512px" viewBox="0 0 512 512" version="1.1" xmlns="http://www.w3.org/2000/svg" xmlns:xlink="http://www.w3.org/1999/xlink" xmlns:sketch="http://www.bohemiancoding.com/sketch/ns">
    <!-- Generator: Sketch 3.2 (9961) - http://www.bohemiancoding.com/sketch -->
    <title>source</title>
    <desc>Created with Sketch.</desc>
    <defs></defs>
    <g id="Page-1" stroke="none" stroke-width="1" fill="none" fill-rule="evenodd" sketch:type="MSPage">
        <g id="source" sketch:type="MSArtboardGroup" fill="#0B0C0C">
            <path d="M224.5,224 L224.5,159.5 L129.5,255.5 L224.5,351.5 L224.5,288 L512,288 L512,224 L224.5,224 Z M384,352 L384,479.996 C384,497.671 369.675,512 352.003,512 L31.997,512 C14.324,512 5.68434189e-14,497.671 5.68434189e-14,479.996 L0,32.004 C0,14.329 14.326,-2.85939591e-15 31.997,-3.94143259e-15 L352.003,-2.35361488e-14 C369.677,-2.46183691e-14 384,14.329 384,32.004 L384,160 L320,160 L320,95.997 C320,78.326 305.665,64 287.998,64 L96.002,64 C78.328,64 64,78.324 64,95.997 L64,416.003 C64,433.674 78.335,448 96.002,448 L287.998,448 C305.672,448 320,433.677 320,416.003 L320,352 L384,352 L384,352 Z" id="source-icon" sketch:type="MSShapeGroup" transform="translate(256.000000, 256.000000) scale(-1, 1) translate(-256.000000, -256.000000) "></path>
        </g>
    </g>
</svg>