<?xml version="1.0" encoding="UTF-8" standalone="no"?>
<svg width="512px" height="512px" viewBox="0 0 512 512" version="1.1" xmlns="http://www.w3.org/2000/svg" xmlns:xlink="http://www.w3.org/1999/xlink" xmlns:sketch="http://www.bohemiancoding.com/sketch/ns">
    <!-- Generator: Sketch 3.2 (9961) - http://www.bohemiancoding.com/sketch -->
    <title>suspend</title>
    <desc>Created with Sketch.</desc>
    <defs></defs>
    <g id="Page-1" stroke="none" stroke-width="1" fill="none" fill-rule="evenodd" sketch:type="MSPage">
        <g id="suspend" sketch:type="MSArtboardGroup" fill="#0B0C0C">
            <path d="M0,223.998702 L0,31.9969832 C0,14.3235467 14.3276796,0 32.0017682,0 L223.998232,0 C241.664719,0 256,14.3255373 256,31.9969832 L256,64 L479.996316,64 C497.670749,64 512,78.3243748 512,95.9943866 L512,480.005613 C512,497.6645 497.671463,512 479.996316,512 L32.0036842,512 C14.3292507,512 0,497.675625 0,480.005613 L0,223.998702 Z M256,448 C344.36556,448 416,376.36556 416,288 C416,199.63444 344.36556,128 256,128 C167.63444,128 96,199.63444 96,288 C96,376.36556 167.63444,448 256,448 Z M172,188.666667 L172,386.666667 L236,386.666667 L236,188.666667 L172,188.666667 Z M276,189.553385 L276,387.242441 L340,387.242441 L340,189.553385 L276,189.553385 Z" sketch:type="MSShapeGroup"></path>
        </g>
    </g>
</svg>