<?xml version="1.0" encoding="UTF-8" standalone="no"?>
<svg width="512px" height="512px" viewBox="0 0 512 512" version="1.1" xmlns="http://www.w3.org/2000/svg" xmlns:xlink="http://www.w3.org/1999/xlink" xmlns:sketch="http://www.bohemiancoding.com/sketch/ns">
    <!-- Generator: Sketch 3.2 (9961) - http://www.bohemiancoding.com/sketch -->
    <title>thirdparty</title>
    <desc>Created with Sketch.</desc>
    <defs></defs>
    <g id="Page-1" stroke="none" stroke-width="1" fill="none" fill-rule="evenodd" sketch:type="MSPage">
        <g id="thirdparty" sketch:type="MSArtboardGroup" fill="#0B0C0C">
            <g id="Imported-Layers" sketch:type="MSLayerGroup">
                <path d="M416,160.11 C416,71.741 344.369,0.11 256,0.11 C167.631,0.11 96,71.741 96,160.11 C96,248.479 167.631,320.11 256,320.11 C344.369,320.11 416,248.479 416,160.11 L416,160.11 Z M256,256.11 C202.977,256.11 160,213.133 160,160.11 C160,107.087 202.977,64.11 256,64.11 C309.023,64.11 352,107.087 352,160.11 C352,213.133 309.023,256.11 256,256.11 L256,256.11 Z" id="Fill-1" sketch:type="MSShapeGroup"></path>
                <path d="M256,320.11 C114.615,320.11 0,370.254 0,432.11 L0,512.11 L512,512.11 L512,432.11 C512,370.254 397.385,320.11 256,320.11 L256,320.11 Z M68.285,445.913 C69.582,436.323 84.42,418.641 100.633,411.548 C139.733,394.442 195.566,384.11 256,384.11 C316.433,384.11 372.267,394.442 411.367,411.548 C427.58,418.641 445.492,434.09 445.492,444.481 C435.944,444.481 78.244,445.913 68.285,445.913 L68.285,445.913 Z" id="Fill-2" sketch:type="MSShapeGroup"></path>
            </g>
        </g>
    </g>
</svg>