<?xml version="1.0" encoding="UTF-8" standalone="no"?>
<svg width="512px" height="512px" viewBox="0 0 512 512" version="1.1" xmlns="http://www.w3.org/2000/svg" xmlns:xlink="http://www.w3.org/1999/xlink" xmlns:sketch="http://www.bohemiancoding.com/sketch/ns">
    <!-- Generator: Sketch 3.0.4 (8054) - http://www.bohemiancoding.com/sketch -->
    <title>thirdparty</title>
    <desc>Created with Sketch.</desc>
    <defs></defs>
    <g id="Page-1" stroke="none" stroke-width="1" fill="none" fill-rule="evenodd" sketch:type="MSPage">
        <g id="thirdparty" sketch:type="MSArtboardGroup" fill="#0B0C0C">
            <path d="M416,160 C416,248.369328 344.369328,320 256,320 C167.630672,320 96,248.369328 96,160 C96,71.6306717 167.630672,0 256,0 C344.369328,0 416,71.6306717 416,160 Z M352,160 C352,213.023104 309.023104,256 256,256 C202.976896,256 160,213.023104 160,160 C160,106.976896 202.976896,64 256,64 C309.023104,64 352,106.976896 352,160 Z M512,512 L512,432 C512,370.144108 397.384896,320 256,320 C114.615104,320 0,370.144108 0,432 L0,512 L512,512 Z M68.2851563,445.802734 C69.5820313,436.212891 84.4204248,418.531142 100.633069,411.43811 C139.733263,394.331775 195.566544,384 256,384 C316.433456,384 372.266737,394.331775 411.366931,411.43811 C427.579575,418.531142 445.492178,433.980279 445.492173,444.371094 C435.944351,444.371094 78.2441407,445.802734 68.2851563,445.802734 Z" sketch:type="MSShapeGroup"></path>
        </g>
    </g>
</svg>