<?xml version="1.0" encoding="UTF-8" standalone="no"?>
<svg width="16px" height="16px" viewBox="0 0 16 16" version="1.1" xmlns="http://www.w3.org/2000/svg" xmlns:xlink="http://www.w3.org/1999/xlink" xmlns:sketch="http://www.bohemiancoding.com/sketch/ns">
    <!-- Generator: Sketch 3.0.3 (7891) - http://www.bohemiancoding.com/sketch -->
    <title>ThirdParty_icon</title>
    <desc>Created with Sketch.</desc>
    <defs></defs>
    <g id="Page-1" stroke="none" stroke-width="1" fill="none" fill-rule="evenodd" sketch:type="MSPage">
        <g id="ThirdParty_icon" sketch:type="MSArtboardGroup" fill="#0B0C0C">
            <path d="M13,5 C13,7.76154151 10.7615415,10 8,10 C5.23845849,10 3,7.76154151 3,5 C3,2.23845849 5.23845849,0 8,0 C10.7615415,0 13,2.23845849 13,5 Z M11,5 C11,6.65697201 9.65697201,8 8,8 C6.34302799,8 5,6.65697201 5,5 C5,3.34302799 6.34302799,2 8,2 C9.65697201,2 11,3.34302799 11,5 Z" id="Path" sketch:type="MSShapeGroup"></path>
            <path d="M16,16 L16,13.5 C16,11.5670034 12.418278,10 8,10 C3.581722,10 0,11.5670034 0,13.5 L0,16 L16,16 Z M2,16 L2,13.5 C2,13.5872907 1.99153468,13.6053896 2.06657812,13.5277672 C2.26962616,13.3177412 2.63813828,13.0790982 3.14478342,12.8574409 C4.36666446,12.322868 6.1114545,12 8,12 C9.8885455,12 11.6333355,12.322868 12.8552166,12.8574409 C13.3618617,13.0790982 13.7303738,13.3177412 13.9334219,13.5277672 C14.0084653,13.6053896 14,13.5872907 14,13.5 L14,16 L16,14 L0,14 L2,16 Z" id="Oval-8" sketch:type="MSShapeGroup"></path>
        </g>
    </g>
</svg>