<?xml version="1.0" encoding="UTF-8" standalone="no"?>
<svg width="512px" height="512px" viewBox="0 0 512 512" version="1.1" xmlns="http://www.w3.org/2000/svg" xmlns:xlink="http://www.w3.org/1999/xlink" xmlns:sketch="http://www.bohemiancoding.com/sketch/ns">
    <!-- Generator: Sketch 3.2 (9961) - http://www.bohemiancoding.com/sketch -->
    <title>timer</title>
    <desc>Created with Sketch.</desc>
    <defs></defs>
    <g id="Page-1" stroke="none" stroke-width="1" fill="none" fill-rule="evenodd" sketch:type="MSPage">
        <g id="timer" sketch:type="MSArtboardGroup" fill="#0B0C0C">
            <path d="M224,66.268443 C115.446582,81.7957903 32,175.152891 32,288 C32,411.711792 132.288208,512 256,512 C379.711792,512 480,411.711792 480,288 C480,175.152891 396.553418,81.7957903 288,66.268443 L288,0 L224,0 L224,66.268443 L224,66.268443 Z M92,288 C92,199.634434 165.425295,128 256,128 C346.574705,128 420,199.634434 420,288 C420,376.365566 346.574705,448 256,448 C165.425295,448 92,376.365566 92,288 Z M225.140625,355.469331 L225.140625,175.765625 L289.140625,175.765625 L289.140625,251.707031 L343.313496,220.602164 L371.703125,277.960938 L225.140625,355.469331 Z" sketch:type="MSShapeGroup"></path>
        </g>
    </g>
</svg>