<?xml version="1.0" encoding="UTF-8" standalone="no"?>
<svg width="512px" height="512px" viewBox="0 0 512 512" version="1.1" xmlns="http://www.w3.org/2000/svg" xmlns:xlink="http://www.w3.org/1999/xlink" xmlns:sketch="http://www.bohemiancoding.com/sketch/ns">
    <!-- Generator: Sketch 3.1.1 (8761) - http://www.bohemiancoding.com/sketch -->
    <title>timer</title>
    <desc>Created with Sketch.</desc>
    <defs></defs>
    <g id="Page-1" stroke="none" stroke-width="1" fill="none" fill-rule="evenodd" sketch:type="MSPage">
        <g id="timer" sketch:type="MSArtboardGroup" fill="#0B0C0C">
            <path d="M32,288 C32,164.288208 132.288208,64 256,64 C379.711792,64 480,164.288208 480,288 C480,411.711792 379.711792,512 256,512 C132.288208,512 32,411.711792 32,288 Z M92,288 C92,199.634434 165.425295,128 256,128 C346.574705,128 420,199.634434 420,288 C420,376.365566 346.574705,448 256,448 C165.425295,448 92,376.365566 92,288 Z" id="Oval-22" sketch:type="MSShapeGroup"></path>
            <path d="M225.140625,355.469331 L371.703125,277.960938 L343.313496,220.602164 L289.140625,251.707031 L289.140625,175.765625 L225.140625,175.765625 L225.140625,355.469331 Z" id="Path-36" sketch:type="MSShapeGroup"></path>
            <rect id="Rectangle-31" sketch:type="MSShapeGroup" x="224" y="0" width="64" height="74"></rect>
        </g>
    </g>
</svg>