<?xml version="1.0" encoding="UTF-8" standalone="no"?>
<svg width="512px" height="512px" viewBox="0 0 512 512" version="1.1" xmlns="http://www.w3.org/2000/svg" xmlns:xlink="http://www.w3.org/1999/xlink" xmlns:sketch="http://www.bohemiancoding.com/sketch/ns">
    <!-- Generator: Sketch 3.2 (9961) - http://www.bohemiancoding.com/sketch -->
    <title>upload</title>
    <desc>Created with Sketch.</desc>
    <defs></defs>
    <g id="Page-1" stroke="none" stroke-width="1" fill="none" fill-rule="evenodd" sketch:type="MSPage">
        <g id="upload" sketch:type="MSArtboardGroup" fill="#0B0C0C">
            <path d="M160,384 L32.004,384 C14.329,384 0,369.674 0,352.003 L0,31.997 C0,14.323 14.329,0 32.004,0 L479.996,0 C497.671,0 512,14.325 512,31.997 L512,352.003 C512,369.676 497.671,384 479.996,384 L352,384 L352,320 L416.003,320 C433.674,320 448,305.665 448,287.998 L448,96.002 C448,78.328 433.677,64 416.003,64 L95.997,64 C78.326,64 64,78.335 64,96.002 L64,287.998 C64,305.672 78.324,320 95.997,320 L160,320 L160,384 L160,384 Z M256,129 L160,224 L352,224 L256,129 Z M224,224 L288,224 L288,512 L224,512 L224,224 Z" id="upload-icon" sketch:type="MSShapeGroup" transform="translate(256.000000, 256.000000) scale(-1, 1) translate(-256.000000, -256.000000) "></path>
        </g>
    </g>
</svg>