<?xml version="1.0" encoding="UTF-8" standalone="no"?>
<svg width="512px" height="512px" viewBox="0 0 512 512" version="1.1" xmlns="http://www.w3.org/2000/svg" xmlns:xlink="http://www.w3.org/1999/xlink" xmlns:sketch="http://www.bohemiancoding.com/sketch/ns">
    <!-- Generator: Sketch 3.2 (9961) - http://www.bohemiancoding.com/sketch -->
    <title>user</title>
    <desc>Created with Sketch.</desc>
    <defs></defs>
    <g id="Page-1" stroke="none" stroke-width="1" fill="none" fill-rule="evenodd" sketch:type="MSPage">
        <g id="user" sketch:type="MSArtboardGroup" fill="#0B0C0C">
            <path d="M256,512 C397.384903,512 512,397.384903 512,256 C512,114.615097 397.384903,0 256,0 C114.615097,0 0,114.615097 0,256 C0,397.384903 114.615097,512 256,512 Z M259.809251,88.2758621 C304.501263,88.2758621 340.727847,125.099119 340.727847,170.527236 C340.727847,215.955353 304.501263,252.77861 259.809251,252.77861 C215.117239,252.77861 178.890656,215.955353 178.890656,170.527236 C178.890656,125.099119 215.117239,88.2758621 259.809251,88.2758621 Z M258.758621,280.275862 C338.283966,280.275862 402.758621,308.928297 402.758621,344.275862 C402.758621,379.623427 338.291892,408.275862 258.758621,408.275862 C179.22535,408.275862 114.758621,379.623427 114.758621,344.275862 C114.758621,308.928297 179.22535,280.275862 258.758621,280.275862 Z" sketch:type="MSShapeGroup"></path>
        </g>
    </g>
</svg>