<?xml version="1.0" encoding="UTF-8" standalone="no"?>
<svg width="16px" height="16px" viewBox="0 0 16 16" version="1.1" xmlns="http://www.w3.org/2000/svg" xmlns:xlink="http://www.w3.org/1999/xlink" xmlns:sketch="http://www.bohemiancoding.com/sketch/ns">
    <!-- Generator: Sketch 3.0.3 (7891) - http://www.bohemiancoding.com/sketch -->
    <title>User_icon</title>
    <desc>Created with Sketch.</desc>
    <defs></defs>
    <g id="Page-1" stroke="none" stroke-width="1" fill="none" fill-rule="evenodd" sketch:type="MSPage">
        <g id="User_icon" sketch:type="MSArtboardGroup">
            <circle id="Oval-5" fill="#6F777B" sketch:type="MSShapeGroup" cx="8" cy="8" r="8"></circle>
            <path d="M8.1190391,2.75862069 C9.51566448,2.75862069 10.6477452,3.90934748 10.6477452,5.32897613 C10.6477452,6.74860477 9.51566448,7.89933156 8.1190391,7.89933156 C6.72241373,7.89933156 5.590333,6.74860477 5.590333,5.32897613 C5.590333,3.90934748 6.72241373,2.75862069 8.1190391,2.75862069 L8.1190391,2.75862069 L8.1190391,2.75862069 Z" id="avatar" fill="#FFFFFF" sketch:type="MSShapeGroup"></path>
            <path d="M8.0862069,8.75862069 C10.5713739,8.75862069 12.5862069,9.6540093 12.5862069,10.7586207 C12.5862069,11.8632321 10.5716216,12.7586207 8.0862069,12.7586207 C5.60079218,12.7586207 3.5862069,11.8632321 3.5862069,10.7586207 C3.5862069,9.6540093 5.60079218,8.75862069 8.0862069,8.75862069 L8.0862069,8.75862069 L8.0862069,8.75862069 Z" id="Shape" fill="#FFFFFF" sketch:type="MSShapeGroup"></path>
            <path d="M8,16 C12.4182782,16 16,12.4182782 16,8 C16,3.58172178 12.4182782,0 8,0 C3.58172178,0 0,3.58172178 0,8 C0,12.4182782 3.58172178,16 8,16 Z" id="Oval-5" stroke="#6F777B" stroke-width="2" sketch:type="MSShapeGroup"></path>
        </g>
    </g>
</svg>