<?xml version="1.0" encoding="UTF-8" standalone="no"?>
<svg width="16px" height="16px" viewBox="0 0 16 16" version="1.1" xmlns="http://www.w3.org/2000/svg" xmlns:xlink="http://www.w3.org/1999/xlink" xmlns:sketch="http://www.bohemiancoding.com/sketch/ns">
    <!-- Generator: Sketch 3.0.3 (7891) - http://www.bohemiancoding.com/sketch -->
    <title>Userform_icon</title>
    <desc>Created with Sketch.</desc>
    <defs></defs>
    <g id="Page-1" stroke="none" stroke-width="1" fill="none" fill-rule="evenodd" sketch:type="MSPage">
        <g id="Userform_icon" sketch:type="MSArtboardGroup" fill="#0B0C0C">
            <path d="M1.99406028,0 C0.892771196,0 0,0.894513756 0,1.99406028 L0,14.0059397 C0,15.1072288 0.894513756,16 1.99406028,16 L14.0059397,16 C15.1072288,16 16,15.1054862 16,14.0059397 L16,1.99406028 C16,0.892771196 15.1054862,0 14.0059397,0 L1.99406028,0 Z M3.00247329,2 C2.44882258,2 2,2.45576096 2,3.00247329 L2,12.9975267 C2,13.5511774 2.45576096,14 3.00247329,14 L12.9975267,14 C13.5511774,14 14,13.544239 14,12.9975267 L14,3.00247329 C14,2.44882258 13.544239,2 12.9975267,2 L3.00247329,2 Z" id="Rectangle-140" sketch:type="MSShapeGroup"></path>
            <rect id="Rectangle-142" sketch:type="MSShapeGroup" x="7" y="4" width="5" height="2"></rect>
            <rect id="Rectangle-142-copy" sketch:type="MSShapeGroup" x="7" y="7" width="5" height="2"></rect>
            <rect id="Rectangle-142-copy" sketch:type="MSShapeGroup" x="4" y="4" width="2" height="2"></rect>
            <rect id="Rectangle-142-copy-2" sketch:type="MSShapeGroup" x="4" y="7" width="2" height="2"></rect>
            <rect id="Rectangle-142-copy-3" sketch:type="MSShapeGroup" x="4" y="10" width="2" height="2"></rect>
        </g>
    </g>
</svg>