<?xml version="1.0" encoding="UTF-8" standalone="no"?>
<svg width="512px" height="512px" viewBox="0 0 512 512" version="1.1" xmlns="http://www.w3.org/2000/svg" xmlns:xlink="http://www.w3.org/1999/xlink" xmlns:sketch="http://www.bohemiancoding.com/sketch/ns">
    <!-- Generator: Sketch 3.2 (9961) - http://www.bohemiancoding.com/sketch -->
    <title>voicemail</title>
    <desc>Created with Sketch.</desc>
    <defs></defs>
    <g id="Page-1" stroke="none" stroke-width="1" fill="none" fill-rule="evenodd" sketch:type="MSPage">
        <g id="voicemail" sketch:type="MSArtboardGroup" fill="#0B0C0C">
            <path d="M285.840746,310 L226.159254,310 L226.159246,310.000016 C234.996292,293.282269 240,274.225474 240,254 C240,187.72583 186.27417,134 120,134 C53.72583,134 0,187.72583 0,254 C0,318.599253 51.044568,371.276409 115,373.897722 L115,374 L392,374 C458.27417,374 512,320.27417 512,254 C512,187.72583 458.27417,134 392,134 C325.72583,134 272,187.72583 272,254 C272,274.225474 277.003708,293.282269 285.840754,310.000016 L285.840746,310 Z M336,254 C336,223.072054 361.072054,198 392,198 C422.927946,198 448,223.072054 448,254 C448,284.927946 422.927946,310 392,310 C361.072054,310 336,284.927946 336,254 Z M64,254 C64,223.072054 89.072054,198 120,198 C150.927946,198 176,223.072054 176,254 C176,284.927946 150.927946,310 120,310 C89.072054,310 64,284.927946 64,254 Z" id="Path" sketch:type="MSShapeGroup"></path>
        </g>
    </g>
</svg>