<?xml version="1.0" encoding="UTF-8" standalone="no"?>
<svg width="512px" height="512px" viewBox="0 0 512 512" version="1.1" xmlns="http://www.w3.org/2000/svg" xmlns:xlink="http://www.w3.org/1999/xlink" xmlns:sketch="http://www.bohemiancoding.com/sketch/ns">
    <!-- Generator: Sketch 3.1.1 (8761) - http://www.bohemiancoding.com/sketch -->
    <title>voicemail</title>
    <desc>Created with Sketch.</desc>
    <defs></defs>
    <g id="Page-1" stroke="none" stroke-width="1" fill="none" fill-rule="evenodd" sketch:type="MSPage">
        <path d="M285.840746,310 L226.159254,310 L226.159246,310.000016 C234.996292,293.282269 240,274.225474 240,254 C240,187.72583 186.27417,134 120,134 C53.72583,134 0,187.72583 0,254 C0,318.599253 51.044568,371.276409 115,373.897722 L115,374 L392,374 C458.27417,374 512,320.27417 512,254 C512,187.72583 458.27417,134 392,134 C325.72583,134 272,187.72583 272,254 C272,274.225474 277.003708,293.282269 285.840754,310.000016 L285.840746,310 Z M392,310 C422.927946,310 448,284.927946 448,254 C448,223.072054 422.927946,198 392,198 C361.072054,198 336,223.072054 336,254 C336,284.927946 361.072054,310 392,310 Z M120,310 C150.927946,310 176,284.927946 176,254 C176,223.072054 150.927946,198 120,198 C89.072054,198 64,223.072054 64,254 C64,284.927946 89.072054,310 120,310 Z" id="Path" fill="#0B0C0C" sketch:type="MSShapeGroup"></path>
        <g id="voicemail" sketch:type="MSArtboardGroup"></g>
    </g>
</svg>