<?xml version="1.0" encoding="utf-8"?>
<!-- Generator: Adobe Illustrator 17.0.2, SVG Export Plug-In . SVG Version: 6.00 Build 0)  -->
<!DOCTYPE svg PUBLIC "-//W3C//DTD SVG 1.1//EN" "http://www.w3.org/Graphics/SVG/1.1/DTD/svg11.dtd">
<svg version="1.1" id="Layer_1" xmlns="http://www.w3.org/2000/svg" xmlns:xlink="http://www.w3.org/1999/xlink" x="0px" y="0px"
	 width="16px" height="16px" viewBox="0 0 16 16" enable-background="new 0 0 16 16" xml:space="preserve">
<g>
	<defs>
		<path id="SVGID_1_" d="M3,7L2,8h12l-1-1v9l1-1H2l1,1V7z M1,7v9v1h1h12h1v-1V7V6h-1H2H1V7z M-19-14h54v51h-54V-14z"/>
	</defs>
	<clipPath id="SVGID_2_">
		<use xlink:href="#SVGID_1_"  overflow="visible"/>
	</clipPath>
	<g clip-path="url(#SVGID_2_)">
		<defs>
			<rect id="SVGID_3_" x="2" y="7" width="12" height="9"/>
		</defs>
		<clipPath id="SVGID_4_">
			<use xlink:href="#SVGID_3_"  overflow="visible"/>
		</clipPath>
		<rect x="2" y="7" clip-path="url(#SVGID_4_)" fill-rule="evenodd" clip-rule="evenodd" fill="#FFFFFF" width="12" height="9"/>
	</g>
</g>
<g>
	<defs>
		<rect id="SVGID_5_" x="2" y="7" width="12" height="9"/>
	</defs>
	<clipPath id="SVGID_6_">
		<use xlink:href="#SVGID_5_"  overflow="visible"/>
	</clipPath>
	
		<rect x="2" y="7" clip-path="url(#SVGID_6_)" fill="none" stroke="#6F777B" stroke-width="4" stroke-miterlimit="10" width="12" height="9"/>
</g>
<g>
	<defs>
		<rect id="SVGID_7_" x="6" y="11" width="4" height="5"/>
	</defs>
	<clipPath id="SVGID_8_">
		<use xlink:href="#SVGID_7_"  overflow="visible"/>
	</clipPath>
	
		<rect x="6" y="11" clip-path="url(#SVGID_8_)" fill="none" stroke="#6F777B" stroke-width="4" stroke-miterlimit="10" width="4" height="5"/>
</g>
<g>
	<defs>
		<polygon id="SVGID_9_" points="8,0 16,9 0,9 		"/>
	</defs>
	<clipPath id="SVGID_10_">
		<use xlink:href="#SVGID_9_"  overflow="visible"/>
	</clipPath>
	<rect x="-5" y="-5" clip-path="url(#SVGID_10_)" fill-rule="evenodd" clip-rule="evenodd" fill="#6F777B" width="26" height="19"/>
</g>
<g>
	<defs>
		<rect id="SVGID_11_" x="2" y="2" width="2" height="5"/>
	</defs>
	<clipPath id="SVGID_12_">
		<use xlink:href="#SVGID_11_"  overflow="visible"/>
	</clipPath>
	<rect x="-3" y="-3" clip-path="url(#SVGID_12_)" fill-rule="evenodd" clip-rule="evenodd" fill="#6F777B" width="12" height="15"/>
</g>
</svg>
