<?xml version="1.0" encoding="utf-8"?>
<!-- Generator: Adobe Illustrator 17.0.2, SVG Export Plug-In . SVG Version: 6.00 Build 0)  -->
<!DOCTYPE svg PUBLIC "-//W3C//DTD SVG 1.1//EN" "http://www.w3.org/Graphics/SVG/1.1/DTD/svg11.dtd">
<svg version="1.1" id="Layer_1" xmlns="http://www.w3.org/2000/svg" xmlns:xlink="http://www.w3.org/1999/xlink" x="0px" y="0px"
	 width="16px" height="16px" viewBox="0 0 16 16" enable-background="new 0 0 16 16" xml:space="preserve">
<g>
	<defs>
		<circle id="SVGID_1_" cx="8" cy="8" r="8"/>
	</defs>
	<clipPath id="SVGID_2_">
		<use xlink:href="#SVGID_1_"  overflow="visible"/>
	</clipPath>
	<circle clip-path="url(#SVGID_2_)" fill="none" stroke="#6F777B" stroke-width="4" stroke-miterlimit="10" cx="8" cy="8" r="8"/>
</g>
<path fill="none" stroke="#6F777B" stroke-width="1" stroke-miterlimit="10" d="M9.155,9.085c-0.148,0.079-0.318,0.017-0.38-0.138
	l-0.028-0.07C8.685,8.72,8.754,8.53,8.902,8.45l2.721-1.46c0.148-0.079,0.318-0.017,0.38,0.138l0.028,0.071
	c0.062,0.156-0.007,0.346-0.155,0.426L9.155,9.085"/>
<path fill="none" stroke="#6F777B" stroke-width="1" stroke-miterlimit="10" d="M8.612,8.914C8.596,9.145,8.398,9.312,8.168,9.287
	L8.064,9.276C7.834,9.251,7.66,9.043,7.675,8.813L7.96,4.566c0.016-0.231,0.214-0.398,0.444-0.373l0.104,0.011
	c0.23,0.025,0.404,0.232,0.388,0.463L8.612,8.914"/>
</svg>
