<?xml version="1.0" encoding="UTF-8" standalone="no"?>
<svg width="16px" height="16px" viewBox="0 0 16 16" version="1.1" xmlns="http://www.w3.org/2000/svg" xmlns:xlink="http://www.w3.org/1999/xlink" xmlns:sketch="http://www.bohemiancoding.com/sketch/ns">
    <title>clock</title>
    <description>Created with Sketch (http://www.bohemiancoding.com/sketch)</description>
    <defs></defs>
    <g id="Page-1" stroke="none" stroke-width="1" fill="none" fill-rule="evenodd" sketch:type="MSPage">
        <g id="clock_icon" sketch:type="MSLayerGroup" stroke="#6F777B">
            <circle id="Oval-21" stroke-width="2" sketch:type="MSShapeGroup" cx="8" cy="8" r="8"></circle>
            <path d="M8.98270184,7.23669042 C8.85760562,7.12493979 8.85760562,6.94369677 8.98270184,6.83199383 L9.0392968,6.78138887 C9.16439302,6.66968594 9.36722721,6.66963824 9.49232343,6.78143657 L11.7950976,8.83849715 C11.9201404,8.95029548 11.9201404,9.13144311 11.7950976,9.24319374 L11.7384492,9.293751 C11.6134064,9.40554933 11.4105722,9.40554933 11.285476,9.293751 L8.98270184,7.23669042" id="Fill-3" sketch:type="MSShapeGroup" transform="translate(10.388880, 8.037600) rotate(-70.000000) translate(-10.388880, -8.037600) "></path>
            <path d="M6.41092982,5.59249311 C6.24413487,5.43237281 6.24413487,5.17268132 6.41092982,5.01262935 L6.48638977,4.94012075 C6.65318472,4.78006878 6.92363032,4.78000044 7.09042527,4.94018909 L10.1607908,7.88761918 C10.3275145,8.04780783 10.3275145,8.30736264 10.1607908,8.46748295 L10.0852596,8.53992321 C9.91853588,8.70011185 9.64809029,8.70011185 9.48129533,8.53992321 L6.41092982,5.59249311" id="Fill-3" sketch:type="MSShapeGroup" transform="translate(8.285834, 6.740065) rotate(-130.000000) translate(-8.285834, -6.740065) "></path>
        </g>
    </g>
</svg>