<?xml version="1.0" encoding="utf-8"?>
<!-- Generator: Adobe Illustrator 17.0.2, SVG Export Plug-In . SVG Version: 6.00 Build 0)  -->
<!DOCTYPE svg PUBLIC "-//W3C//DTD SVG 1.1//EN" "http://www.w3.org/Graphics/SVG/1.1/DTD/svg11.dtd">
<svg version="1.1" id="Layer_1" xmlns="http://www.w3.org/2000/svg" xmlns:xlink="http://www.w3.org/1999/xlink" x="0px" y="0px"
	 width="16px" height="16px" viewBox="0 0 16 16" enable-background="new 0 0 16 16" xml:space="preserve">
<g>
	<defs>
		<path id="SVGID_1_" d="M4.5,4C4.224,4,4,4.232,4,4.5C4,4.776,4.231,5,4.5,5H11.5C11.776,5,12,4.768,12,4.5
			C12,4.224,11.769,4,11.5,4H4.5z M4.5,6C4.224,6,4,6.232,4,6.5C4,6.776,4.231,7,4.5,7H11.5C11.776,7,12,6.768,12,6.5
			C12,6.224,11.769,6,11.5,6H4.5z M4.491,8C4.22,8,4,8.232,4,8.5C4,8.776,4.228,9,4.491,9h5.018C9.78,9,10,8.768,10,8.5
			C10,8.224,9.772,8,9.509,8H4.491z M3.002,2C2.449,2,2,2.446,2,2.998v7.005C2,10.553,2.456,11,3.002,11h9.995
			C13.551,11,14,10.554,14,10.002V2.998C14,2.447,13.544,2,12.998,2H3.002z M5,11v2.289L8,11H5z M3,13H1.994
			C0.895,13,0,12.103,0,10.997V2.003C0,0.894,0.893,0,1.994,0h12.012C15.105,0,16,0.897,16,2.003v8.994
			C16,12.106,15.107,13,14.006,13H8.603c-1.087,0.778-2.577,1.842-3.594,2.565C3.232,16.828,3,15,3,15V13z"/>
	</defs>
	<clipPath id="SVGID_2_">
		<use xlink:href="#SVGID_1_"  overflow="visible"/>
	</clipPath>
	
		<rect x="-5" y="-5" clip-path="url(#SVGID_2_)" fill-rule="evenodd" clip-rule="evenodd" fill="#6F777B" width="26" height="26.01"/>
</g>
</svg>
