<?xml version="1.0" encoding="UTF-8" standalone="no"?>
<svg width="16px" height="12px" viewBox="0 0 16 12" version="1.1" xmlns="http://www.w3.org/2000/svg" xmlns:xlink="http://www.w3.org/1999/xlink" xmlns:sketch="http://www.bohemiancoding.com/sketch/ns">
    <!-- Generator: Sketch 3.0.2 (7799) - http://www.bohemiancoding.com/sketch -->
    <title>Slice 1</title>
    <description>Created with Sketch.</description>
    <defs></defs>
    <g id="Page-1" stroke="none" stroke-width="1" fill="none" fill-rule="evenodd" sketch:type="MSPage">
        <path d="M7.00986693,7.99006027 L7,8 L8,9 L9,8 L8.01230892,7.01949039 L8.0144477,7.01735162 L4.50714111,3.50360107 L3.51806641,4.53137209 L5.01262458,6.01175754 L3.49768066,7.50730658 L4.52545168,8.49638129 L6.0238234,7.01336728 L7.00986693,7.99006027 Z M10.0000269,7.03297604 L9.03924969,8.00295139 L8.01147867,7.01387668 L11.5252292,3.5065701 L12.513798,4.49513889 L11.0029064,6.02049527 L12.4671454,7.50372314 L11.4407783,8.48864746 L10.0000269,7.03297604 L10.0000269,7.03297604 Z M1.99406028,0 C0.892771196,0 0,0.901950359 0,2.0085302 L0,9.9914698 C0,11.1007504 0.894513756,12 1.99406028,12 L14.0059397,12 C15.1072288,12 16,11.0980496 16,9.9914698 L16,2.0085302 C16,0.899249601 15.1054862,0 14.0059397,0 L1.99406028,0 Z M3.00247329,2 C2.44882258,2 2,2.45303631 2,2.99703014 L2,9.00296986 C2,9.5536144 2.45576096,10 3.00247329,10 L12.9975267,10 C13.5511774,10 14,9.54696369 14,9.00296986 L14,2.99703014 C14,2.4463856 13.544239,2 12.9975267,2 L3.00247329,2 Z" id="email_icon" fill="#D8D8D8" sketch:type="MSShapeGroup"></path>
    </g>
</svg>