<?xml version="1.0" encoding="utf-8"?>
<!-- Generator: Adobe Illustrator 17.0.2, SVG Export Plug-In . SVG Version: 6.00 Build 0)  -->
<!DOCTYPE svg PUBLIC "-//W3C//DTD SVG 1.1//EN" "http://www.w3.org/Graphics/SVG/1.1/DTD/svg11.dtd">
<svg version="1.1" id="Layer_1" xmlns="http://www.w3.org/2000/svg" xmlns:xlink="http://www.w3.org/1999/xlink" x="0px" y="0px"
	 width="16px" height="16px" viewBox="0 0 16 16" enable-background="new 0 0 16 16" xml:space="preserve">
<g>
	<defs>
		<path id="SVGID_1_" d="M7.993,9L7,10l1,1l1-1L7.993,9z M1.994,2C0.893,2,0,2.902,0,4.009v7.983C0,13.101,0.895,14,1.994,14h12.012
			C15.107,14,16,13.098,16,11.991V4.009C16,2.899,15.105,2,14.006,2H1.994z M12.443,12h0.554C13.551,12,14,11.547,14,11.003V4.997
			C14,4.446,13.544,4,12.998,4h-0.301L14,5.311l-2.577,2.616l2.573,2.591L12.443,12z M3.506,12H3.002C2.456,12,2,11.554,2,11.003
			v-0.461L3.506,12z M4.595,7.934L2,10.511V4.997C2,4.453,2.449,4,3.002,4h9.671L8.011,8.68l1.367,1.323l0.533-0.541L12.439,12
			H3.558l2.566-2.555l0.568,0.561l1.322-1.319L3.323,4L2,5.371L4.595,7.934z"/>
	</defs>
	<clipPath id="SVGID_2_">
		<use xlink:href="#SVGID_1_"  overflow="visible"/>
	</clipPath>
	<rect x="-5" y="-3" clip-path="url(#SVGID_2_)" fill-rule="evenodd" clip-rule="evenodd" fill="#6F777B" width="26" height="22"/>
</g>
</svg>
