<?xml version="1.0" encoding="UTF-8" standalone="no"?>
<svg width="16px" height="16px" viewBox="0 0 16 16" version="1.1" xmlns="http://www.w3.org/2000/svg" xmlns:xlink="http://www.w3.org/1999/xlink" xmlns:sketch="http://www.bohemiancoding.com/sketch/ns">
    <title>house</title>
    <description>Created with Sketch (http://www.bohemiancoding.com/sketch)</description>
    <defs></defs>
    <g id="Operator" stroke="none" stroke-width="1" fill="none" fill-rule="evenodd" sketch:type="MSPage">
        <g id="3_Case_YourDetails" sketch:type="MSArtboardGroup" transform="translate(-10.000000, -162.000000)" fill="#6F777B">
            <g id="User_details" sketch:type="MSLayerGroup" transform="translate(10.000000, 128.000000)">
                <path d="M6,48.008667 L4,48.008667 L4,42.0074532 L4,42.0074532 L12,42.0181159 L12,48.008667 L10,48.008667 L10,45.0084745 C10,44.4562961 9.55664682,44.008667 8.9906311,44.008667 L7.0093689,44.008667 C6.45190985,44.008667 6,44.4523836 6,45.0084745 L6,48.008667 Z M2,39.0206675 C0.878669271,40.1415978 0.0145873913,41.0053712 0.0145874023,41.0053712 C0.0145874255,41.0053712 0.0145874146,41.5484297 0.0145874072,41.8355728 C0.00499729319,41.8913974 0,41.9488769 0,42.0076236 L0,43.0097104 C0,43.5614189 0.444630861,44.008667 1.00087166,44.008667 L2.0000037,44.008667 L2.00000402,44.008667 C2.00000134,44.0096431 2,44.0106195 2,44.0115963 L2,49.0057377 C2,49.5596402 2.45576096,50.008667 3.00247329,50.008667 L12.9975267,50.008667 C13.5511774,50.008667 14,49.5707856 14,49.0057377 L14,44.0115963 C14,44.0106196 13.9999986,44.0096431 13.9999958,44.008667 L14.9991283,44.008667 C15.5518945,44.008667 16,43.5660067 16,43.0097104 L16,42.0236161 L16,42.0236161 L16.0238076,42.023638 L16.0238075,41.0053711 C16.0238075,41.0053711 9.01818848,34 9.01818848,34 C9.01818848,34 7.02246094,34 7.02246094,34 C7.02246094,34 5.57759674,35.4443483 4,37.0213817 L4,36.0056971 C4,35.4550526 3.55613518,35.008667 3,35.008667 C2.44771525,35.008667 2,35.4617033 2,36.0056971 L2,39.0206675 L2,39.0206675 Z" id="house" sketch:type="MSShapeGroup"></path>
            </g>
        </g>
    </g>
</svg>