<?xml version="1.0" encoding="UTF-8" standalone="no"?>
<svg width="12px" height="16px" viewBox="0 0 12 16" version="1.1" xmlns="http://www.w3.org/2000/svg" xmlns:xlink="http://www.w3.org/1999/xlink" xmlns:sketch="http://www.bohemiancoding.com/sketch/ns">
    <!-- Generator: Sketch 3.0.2 (7799) - http://www.bohemiancoding.com/sketch -->
    <title>Slice 3</title>
    <description>Created with Sketch.</description>
    <defs></defs>
    <g id="Page-1" stroke="none" stroke-width="1" fill="none" fill-rule="evenodd" sketch:type="MSPage">
        <g id="location_icon" sketch:type="MSLayerGroup">
            <path d="M5.99907692,15.8506667 C5.99907692,15.8506667 0,9.79866667 0,5.74044444 L0,5.77688889 C0,2.58577778 2.68523077,0 5.99907692,0 C9.31476923,0 12,2.58577778 12,5.77688889 L12,5.74044444 C12,9.79866667 5.99907692,15.8506667 5.99907692,15.8506667 L5.99907692,15.8506667 Z" id="Shape" fill="#D8D8D8" sketch:type="MSShapeGroup"></path>
            <path d="M10.3070769,5.85066675 C10.3070769,8.10044453 8.41292308,9.92355564 6.07569231,9.92355564 C3.74076923,9.92355564 1.84615385,8.10044453 1.84615385,5.85066675 C1.84615385,3.60000008 3.74076923,1.77777786 6.07569231,1.77777786 C8.41292308,1.77733341 10.3070769,3.59955564 10.3070769,5.85066675 L10.3070769,5.85066675 Z" id="Shape" fill="#FFFFFF" sketch:type="MSShapeGroup"></path>
        </g>
    </g>
</svg>