<?xml version="1.0" encoding="utf-8"?>
<!-- Generator: Adobe Illustrator 17.0.2, SVG Export Plug-In . SVG Version: 6.00 Build 0)  -->
<!DOCTYPE svg PUBLIC "-//W3C//DTD SVG 1.1//EN" "http://www.w3.org/Graphics/SVG/1.1/DTD/svg11.dtd">
<svg version="1.1" id="Layer_1" xmlns="http://www.w3.org/2000/svg" xmlns:xlink="http://www.w3.org/1999/xlink" x="0px" y="0px"
	 width="16px" height="16px" viewBox="0 0 16 16" enable-background="new 0 0 16 16" xml:space="preserve">
<g>
	<defs>
		<path id="SVGID_1_" d="M8.129,12.771c-0.453,0.088-1.155-0.921-2.428-2.209C4.151,9.012,3.683,8.573,3.581,7.9
			c0.687,0.015,1.346-0.176,1.931-0.541c0.19-0.132,0.366-0.278,0.527-0.439L7.5,5.458c0.541-0.541,0.527-1.433-0.029-1.989
			L5.95,1.947L4.429,0.426C3.873-0.13,2.981-0.144,2.44,0.397L0.977,1.859C0.816,2.02,0.67,2.196,0.538,2.386
			c-0.687,1.068-0.717,2.472-0.088,3.598c0.249,1.287,1.17,3.335,4.022,6.187c3.188,3.188,5.15,3.744,6.201,3.657
			c0.98,0.322,2.062,0.19,2.94-0.366c0.19-0.132,0.366-0.278,0.527-0.439l1.463-1.463c0.541-0.541,0.527-1.433-0.029-1.989
			l-1.521-1.521l-1.521-1.521c-0.556-0.556-1.448-0.57-1.989-0.029L9.08,9.962c-0.161,0.161-0.307,0.336-0.439,0.527
			C8.202,11.176,8.027,11.981,8.129,12.771z"/>
	</defs>
	<clipPath id="SVGID_2_">
		<use xlink:href="#SVGID_1_"  overflow="visible"/>
	</clipPath>
	<rect x="-5" y="-5" clip-path="url(#SVGID_2_)" fill-rule="evenodd" clip-rule="evenodd" fill="#6F777B" width="26" height="26"/>
</g>
<g>
	<defs>
		<path id="SVGID_3_" d="M-29.032,11.685c-0.4-0.231-0.268-1.453-0.383-3.26c-0.153-2.187-0.218-2.825,0.146-3.4
			c0.509,0.462,1.131,0.75,1.812,0.858c0.23,0.025,0.458,0.03,0.685,0.014l2.063-0.144c0.763-0.053,1.338-0.736,1.283-1.52
			l-0.15-2.146l-0.15-2.146c-0.055-0.784-0.719-1.38-1.482-1.327l-2.063,0.144c-0.227,0.016-0.452,0.052-0.677,0.11
			c-1.219,0.355-2.163,1.395-2.427,2.658c-0.657,1.135-1.305,3.284-1.023,7.308c0.315,4.498,1.43,6.204,2.281,6.828
			c0.528,0.886,1.432,1.496,2.459,1.653c0.23,0.025,0.458,0.03,0.685,0.014l2.063-0.144c0.763-0.053,1.338-0.736,1.283-1.52
			l-0.15-2.146l-0.15-2.146c-0.055-0.784-0.719-1.38-1.482-1.327l-2.063,0.144c-0.227,0.016-0.453,0.052-0.677,0.11
			C-27.931,10.53-28.591,11.022-29.032,11.685z"/>
	</defs>
	<clipPath id="SVGID_4_">
		<use xlink:href="#SVGID_3_"  overflow="visible"/>
	</clipPath>
	
		<rect x="-39" y="-5" transform="matrix(-0.7547 -0.6561 0.6561 -0.7547 -50.8709 -3.0199)" clip-path="url(#SVGID_4_)" fill-rule="evenodd" clip-rule="evenodd" fill="#6F777B" width="26" height="26"/>
</g>
</svg>
