<?xml version="1.0" encoding="UTF-8" standalone="no"?>
<svg width="16px" height="16px" viewBox="0 0 16 16" version="1.1" xmlns="http://www.w3.org/2000/svg" xmlns:xlink="http://www.w3.org/1999/xlink" xmlns:sketch="http://www.bohemiancoding.com/sketch/ns">
    <title>phone</title>
    <description>Created with Sketch (http://www.bohemiancoding.com/sketch)</description>
    <defs></defs>
    <g id="Operator" stroke="none" stroke-width="1" fill="none" fill-rule="evenodd" sketch:type="MSPage">
        <g id="3_Case_YourDetails" sketch:type="MSArtboardGroup" transform="translate(-10.000000, -255.000000)" fill="#6F777B">
            <g id="User_details" sketch:type="MSLayerGroup" transform="translate(10.000000, 128.000000)">
                <path d="M8.64120067,137.488887 C8.20242493,138.176312 8.02691463,138.980746 8.12929564,139.770554 C7.67589404,139.858311 6.97385286,138.849112 5.70140321,137.562017 C4.15106226,136.011654 3.68303481,135.572871 3.5806538,134.900072 C4.26806913,134.914698 4.92623274,134.724559 5.51126706,134.358907 C5.70140321,134.227273 5.87691351,134.081012 6.03779795,133.920125 L7.50038375,132.457518 C8.04154049,131.916353 8.02691463,131.024163 7.47113203,130.468372 L5.9500428,128.94726 L4.42895357,127.426149 C3.87317096,126.870358 2.98099362,126.855732 2.43983688,127.396897 L0.977251079,128.859504 C0.816366641,129.020391 0.670108061,129.195904 0.538475339,129.386043 C-0.148939987,130.453746 -0.178191703,131.857849 0.450720191,132.984057 C0.699359777,134.271151 1.62078883,136.318801 4.47283114,139.170885 C7.66126818,142.359369 9.62259574,142.91516 10.6741949,142.827404 C11.6541274,143.149177 12.7364409,143.017542 13.6139924,142.461752 C13.8041285,142.330117 13.9796388,142.183856 14.1405233,142.02297 L15.6031091,140.560362 C16.1442658,140.019198 16.12964,139.127007 15.5738574,138.571216 L14.0527681,137.050105 L12.5316789,135.528993 C11.9758963,134.973202 11.083719,134.958576 10.5425622,135.499741 L9.07997641,136.962348 C8.91909197,137.123235 8.77283339,137.298748 8.64120067,137.488887 L8.64120067,137.488887 Z" id="Callback_icon" sketch:type="MSShapeGroup"></path>
            </g>
        </g>
    </g>
</svg>