<?xml version="1.0" encoding="UTF-8" standalone="no"?>
<svg width="39px" height="39px" viewBox="0 0 39 39" version="1.1" xmlns="http://www.w3.org/2000/svg" xmlns:xlink="http://www.w3.org/1999/xlink" xmlns:sketch="http://www.bohemiancoding.com/sketch/ns">
    <title>tick_icon</title>
    <description>Created with Sketch (http://www.bohemiancoding.com/sketch)</description>
    <defs></defs>
    <g id="Operator" stroke="none" stroke-width="1" fill="none" fill-rule="evenodd" sketch:type="MSPage">
        <g id="6_ProviderAssigned" sketch:type="MSArtboardGroup" transform="translate(-266.000000, -84.000000)">
            <g id="tick_icon" sketch:type="MSLayerGroup" transform="translate(266.000000, 84.000000)">
                <path d="M19.4996763,0 C30.2696808,0 39,8.72916943 39,19.4993527 C39,30.2688886 30.2696808,39 19.4996763,39 C8.73096649,39 0,30.2688886 0,19.4993527 C0,8.72916943 8.73096649,0 19.4996763,0" id="Fill-1" fill="#006435" sketch:type="MSShapeGroup"></path>
                <path d="M13.5445356,25.7285854 L26.6009849,11.6925224 C27.3777626,10.8261067 28.6970819,10.7642199 29.5485619,11.5545664 L30.3190089,12.2694882 C31.1704889,13.0604793 31.2318968,14.4039394 30.4557521,15.2709997 L17.3986698,29.3064181 C16.6225252,30.174123 15.3032059,30.2360099 14.4517259,29.4450188 L13.6806458,28.7294522 C12.8291658,27.9397505 12.768391,26.5950011 13.5445356,25.7285854" id="Fill-2" fill="#FFFFFF" sketch:type="MSShapeGroup"></path>
                <path d="M11.4718621,19.6670155 C10.6826421,18.8328321 9.34153767,18.7727962 8.47573735,19.5336726 L7.69221338,20.2225058 C6.82641307,20.9833822 6.76438936,22.2769984 7.55360939,23.1118137 L13.527505,29.3321675 C14.316725,30.1669829 15.6584623,30.2276508 16.5242626,29.4661425 L17.3077866,28.7773092 C18.1735869,28.0164328 18.2356106,26.7228166 17.4463906,25.8880013 L11.4718621,19.6670155 Z" id="Fill-3" fill="#FFFFFF" sketch:type="MSShapeGroup"></path>
            </g>
        </g>
    </g>
</svg>