<?xml version="1.0" encoding="UTF-8" standalone="no"?>
<svg width="16px" height="16px" viewBox="0 0 16 16" version="1.1" xmlns="http://www.w3.org/2000/svg" xmlns:xlink="http://www.w3.org/1999/xlink" xmlns:sketch="http://www.bohemiancoding.com/sketch/ns">
    <!-- Generator: Sketch 3.0.2 (7799) - http://www.bohemiancoding.com/sketch -->
    <title>Slice 2</title>
    <description>Created with Sketch.</description>
    <defs></defs>
    <g id="Page-1" stroke="none" stroke-width="1" fill="none" fill-rule="evenodd" sketch:type="MSPage">
        <g id="user_icon" sketch:type="MSLayerGroup">
            <circle id="Oval-5" fill="#D8D8D8" sketch:type="MSShapeGroup" cx="8" cy="8" r="8"></circle>
            <path d="M3.61348462,10.5723077 L3.56741821,10.5723077 L3.56741821,16.1242653 L12.6704095,16.1242653 L12.6704095,10.9035712 C12.6705763,10.8959499 12.67066,10.8883191 12.67066,10.880679 C12.67066,10.8730394 12.6705763,10.8654091 12.6704095,10.8577883 L12.6704095,10.5723077 L12.6245883,10.5723077 C12.3091356,9.52590653 10.4120173,8.72157029 8.1190391,8.72157029 C5.82583237,8.72157029 3.9289025,9.52590653 3.61348462,10.5723077 Z M8.1190391,2.75862069 C9.51566448,2.75862069 10.6477452,3.90934748 10.6477452,5.32897613 C10.6477452,6.74860477 9.51566448,7.89933156 8.1190391,7.89933156 C6.72241373,7.89933156 5.590333,6.74860477 5.590333,5.32897613 C5.590333,3.90934748 6.72241373,2.75862069 8.1190391,2.75862069 Z" id="avatar" fill="#FFFFFF" sketch:type="MSShapeGroup"></path>
            <circle id="Oval-5" stroke="#D8D8D8" stroke-width="2" sketch:type="MSShapeGroup" cx="8" cy="8" r="8"></circle>
        </g>
    </g>
</svg>