<?xml version="1.0" encoding="utf-8"?>
<!-- Generator: Adobe Illustrator 17.0.2, SVG Export Plug-In . SVG Version: 6.00 Build 0)  -->
<!DOCTYPE svg PUBLIC "-//W3C//DTD SVG 1.1//EN" "http://www.w3.org/Graphics/SVG/1.1/DTD/svg11.dtd">
<svg version="1.1" id="Layer_1" xmlns="http://www.w3.org/2000/svg" xmlns:xlink="http://www.w3.org/1999/xlink" x="0px" y="0px"
	 width="16px" height="16px" viewBox="0 0 16 16" enable-background="new 0 0 16 16" xml:space="preserve">
<g>
	<defs>
		<circle id="SVGID_1_" cx="8" cy="8" r="8"/>
	</defs>
	<clipPath id="SVGID_2_">
		<use xlink:href="#SVGID_1_"  overflow="visible"/>
	</clipPath>
	<rect x="-5" y="-5" clip-path="url(#SVGID_2_)" fill-rule="evenodd" clip-rule="evenodd" fill="#6F777B" width="26" height="26"/>
</g>
<g>
	<defs>
		<path id="SVGID_3_" d="M8.119,2.759c1.397,0,2.529,1.151,2.529,2.57c0,1.42-1.132,2.57-2.529,2.57S5.59,6.749,5.59,5.329
			C5.59,3.909,6.722,2.759,8.119,2.759z M3.613,10.572H3.567v5.552h9.103v-5.221c0-0.008,0-0.015,0-0.023s0-0.015,0-0.023v-0.285
			h-0.046c-0.315-1.046-2.213-1.851-4.506-1.851C5.826,8.722,3.929,9.526,3.613,10.572z"/>
	</defs>
	<clipPath id="SVGID_4_">
		<use xlink:href="#SVGID_3_"  overflow="visible"/>
	</clipPath>
	
		<rect x="-1.433" y="-2.241" clip-path="url(#SVGID_4_)" fill-rule="evenodd" clip-rule="evenodd" fill="#FFFFFF" width="19.103" height="23.366"/>
</g>
<g>
	<defs>
		<circle id="SVGID_5_" cx="8" cy="8" r="8"/>
	</defs>
	<clipPath id="SVGID_6_">
		<use xlink:href="#SVGID_5_"  overflow="visible"/>
	</clipPath>
	<circle clip-path="url(#SVGID_6_)" fill="none" stroke="#6F777B" stroke-width="4" stroke-miterlimit="10" cx="8" cy="8" r="8"/>
</g>
</svg>
